<?xml version="1.0" encoding="utf-8"?>
<!-- Generator: Adobe Illustrator 18.1.1, SVG Export Plug-In . SVG Version: 6.00 Build 0)  -->
<svg version="1.1" id="Layer_1" xmlns="http://www.w3.org/2000/svg" xmlns:xlink="http://www.w3.org/1999/xlink" x="0px" y="0px"
	 viewBox="0 0 800 597.6" enable-background="new 0 0 800 597.6" xml:space="preserve">
<g>
	<path fill="#1E8BCB" d="M449.8,168.3C449.8,168.3,449.8,168.4,449.8,168.3C449.8,168.4,449.8,168.3,449.8,168.3
		C449.8,168.3,449.8,168.3,449.8,168.3z"/>
	<path fill="#1E8BCB" d="M461.5,132C461.5,132,461.5,131.9,461.5,132c0-0.2,0-0.3,0-0.3c0-0.2,0-0.3,0-0.5c0-0.2,0-0.4,0-0.6
		c0,0,0-0.1,0-0.1c0-0.1,0-0.2,0-0.4c0-0.2,0-0.4,0-0.6c0-0.1,0-0.2,0-0.3c0-0.1,0-0.1,0-0.2c0-0.2,0-0.3,0-0.5c0-0.2,0-0.4-0.1-0.6
		c0-0.1,0-0.1,0-0.2c0-0.1,0-0.1,0-0.2c0-0.2,0-0.4-0.1-0.6c0-0.2,0-0.4-0.1-0.6c0,0,0,0,0,0c0-0.1,0-0.2,0-0.2
		c0-0.2-0.1-0.5-0.1-0.7c0-0.2-0.1-0.4-0.1-0.6c0,0,0-0.1,0-0.1c0-0.3-0.1-0.6-0.2-1c0-0.1,0-0.3-0.1-0.4c0,0,0-0.1,0-0.1
		c0,0,0,0,0,0c-0.1-0.4-0.1-0.8-0.2-1.2c0-0.1,0-0.2-0.1-0.3c0,0,0,0,0,0c0,0,0,0,0,0c-0.1-0.4-0.2-0.7-0.2-1.1c0-0.1,0-0.2-0.1-0.3
		c0-0.1,0-0.1,0-0.2c0-0.2-0.1-0.4-0.1-0.5c0-0.2-0.1-0.3-0.1-0.5c0-0.1-0.1-0.2-0.1-0.4c0-0.1-0.1-0.2-0.1-0.3c0-0.1,0-0.1-0.1-0.2
		c0-0.1-0.1-0.3-0.1-0.4c0-0.1,0-0.1-0.1-0.2c0-0.1-0.1-0.3-0.1-0.4c0-0.1-0.1-0.3-0.1-0.4c0-0.1-0.1-0.2-0.1-0.3
		c0-0.1-0.1-0.3-0.1-0.4c0,0,0,0,0,0c0-0.1-0.1-0.3-0.1-0.4c-0.1-0.2-0.1-0.4-0.2-0.6c-0.1-0.2-0.1-0.5-0.2-0.7
		c0-0.1-0.1-0.2-0.1-0.3c-0.1-0.2-0.2-0.5-0.3-0.7c-0.1-0.2-0.2-0.4-0.2-0.7c0-0.1-0.1-0.1-0.1-0.2c-0.1-0.3-0.2-0.6-0.4-1
		c-0.1-0.2-0.1-0.4-0.2-0.6c0,0,0-0.1,0-0.1c-0.1-0.4-0.3-0.7-0.4-1.1c-0.1-0.2-0.2-0.4-0.2-0.6c0,0,0,0,0,0c0,0,0,0,0,0
		c-0.1-0.3-0.3-0.7-0.5-1c-0.1-0.2-0.2-0.4-0.3-0.6c0-0.1-0.1-0.1-0.1-0.2c-0.1-0.2-0.2-0.4-0.3-0.6c0-0.1-0.1-0.2-0.1-0.3
		c-0.1-0.2-0.2-0.4-0.3-0.6c0-0.1-0.1-0.2-0.1-0.3c-0.1-0.2-0.2-0.5-0.3-0.7c0,0,0,0,0-0.1c-0.1-0.2-0.2-0.4-0.3-0.7
		c-0.1-0.1-0.2-0.3-0.2-0.4c-0.1-0.1-0.1-0.2-0.2-0.3c-0.1-0.1-0.2-0.3-0.2-0.4c-0.1-0.2-0.2-0.4-0.3-0.5c-0.1-0.2-0.2-0.4-0.3-0.6
		c-0.1-0.2-0.3-0.5-0.4-0.7c-0.1-0.1-0.1-0.3-0.2-0.4c-0.1-0.2-0.3-0.5-0.4-0.7c-0.1-0.2-0.2-0.3-0.3-0.5c0-0.1-0.1-0.1-0.1-0.2
		c-0.1-0.1-0.1-0.2-0.2-0.3c-0.2-0.3-0.4-0.7-0.6-1c-0.1-0.2-0.3-0.4-0.4-0.6c0,0-0.1-0.1-0.1-0.1c-0.4-0.6-0.8-1.2-1.1-1.8
		c-3.1-4.7-6.4-8.7-9.8-12c-1-1-1.9-1.9-2.9-2.7c-5.4-4.7-10.9-7.9-16.4-9.9c-1-0.4-2-0.7-3-1c-3-0.9-6-1.4-9-1.6
		c-1-0.1-2-0.1-2.9-0.1c-0.5,0-1,0-1.5,0c-0.5,0-1,0-1.4,0c-1.4,0.1-2.9,0.2-4.3,0.4c-1.4,0.2-2.8,0.4-4.1,0.7
		c-0.5,0.1-0.9,0.2-1.3,0.3c-0.9,0.2-1.8,0.4-2.6,0.7s-1.7,0.5-2.6,0.8c-0.8,0.3-1.7,0.6-2.5,0.9c-2.4,1-4.7,2.1-6.8,3.3
		c-0.7,0.4-1.4,0.8-2.1,1.2s-1.3,0.8-1.9,1.3c-1.6,1.1-3.2,2.3-4.5,3.5c-0.4,0.4-0.9,0.8-1.3,1.2c-0.5,0.5-0.9,0.9-1.3,1.3
		c-1,1-1.8,2.1-2.6,3.2c-0.5,0.8-1,1.5-1.5,2.3s-0.9,1.6-1.4,2.4c-0.4,0.8-0.9,1.6-1.3,2.4c-0.6,1.2-1.2,2.5-1.7,3.7
		c-0.4,0.8-0.7,1.6-1.1,2.5c-0.4,0.8-0.7,1.6-1,2.4c-0.3,0.8-0.7,1.6-1,2.4c-0.5,1.2-1.1,2.3-1.6,3.4c-0.4,0.7-0.8,1.4-1.2,2.1
		c-0.6,1-1.2,2-1.9,2.9c-1.4,1.8-2.9,3.3-4.8,4.4c-2.4,1.4-5.1,2.1-8.2,2.2c-1.8,0.1-3.7-0.1-5.7-0.5c0.7,0.7,1.3,1.4,2,2.1
		c0.4,0.5,0.8,0.9,1.3,1.4c0.2,0.2,0.4,0.5,0.7,0.7c0.6,0.7,1.1,1.3,1.7,2c0,0,0,0,0,0.1c0,0.1,0.1,0.1,0.1,0.2c0,0,0,0,0,0
		c0.7,0.9,1.5,1.9,2.2,2.9c0,0.1,0.1,0.1,0.1,0.2c1.4,1.9,2.7,4,3.9,6.1c0.1,0.1,0.2,0.3,0.2,0.4c0.6,1.1,1.2,2.2,1.8,3.3
		c0.1,0.2,0.2,0.4,0.3,0.6c0.4-0.4,0.8-0.7,1.3-1.1c0.1-0.1,0.1-0.1,0.2-0.2c0.4-0.3,0.9-0.6,1.3-0.9c0,0,0,0,0,0l0,0
		c0,0,0.1,0,0.1-0.1c0.9-0.6,1.8-1.1,2.8-1.5c0.1,0,0.2-0.1,0.2-0.1c0.4-0.2,0.9-0.4,1.3-0.5c0.1,0,0.1,0,0.2-0.1
		c0.3-0.1,0.5-0.2,0.8-0.2c0.6-0.2,1.2-0.4,1.8-0.5c0.1,0,0.3-0.1,0.4-0.1c0.7-0.2,1.4-0.3,2-0.4c1-0.2,2.1-0.3,3.1-0.3
		c0.4,0,0.9,0,1.3,0c0.9,0,1.7,0,2.5,0.1c4.2,0.2,8,1.2,10.7,2.7c0.8,0.4,1.5,0.9,2.1,1.4c0.2,0.2,0.4,0.3,0.5,0.5
		c0.3,0.3,0.6,0.7,0.8,1.1c0,0,0,0,0,0c0.2,0.3,0.3,0.6,0.5,0.9c0,0.1,0.1,0.2,0.1,0.3c0.1,0.2,0.2,0.4,0.3,0.6
		c0.1,0.1,0.1,0.2,0.2,0.3c0.1,0.2,0.2,0.4,0.3,0.6c0,0.1,0.1,0.2,0.1,0.3c0.3,0.6,0.5,1.2,0.7,1.8c0,0.1,0.1,0.2,0.1,0.2
		c0.1,0.2,0.2,0.5,0.2,0.7c0,0.1,0.1,0.2,0.1,0.3c0.1,0.2,0.1,0.5,0.2,0.7c0,0.1,0,0.2,0.1,0.2c0.2,0.6,0.3,1.3,0.4,1.9
		c0,0.1,0,0.1,0,0.2c0,0.3,0.1,0.5,0.1,0.8c0,0.1,0,0.2,0,0.3c0,0.3,0,0.5,0,0.8c0,0.1,0,0.2,0,0.3c0,0.7,0,1.4-0.1,2.2
		c0,0.1,0,0.1,0,0.2c0,0.3-0.1,0.6-0.1,0.9c0,0.1,0,0.2,0,0.3c0,0.3-0.1,0.6-0.1,0.9c0,0.1,0,0.2,0,0.3c-0.1,0.4-0.1,0.8-0.2,1.3
		c0,0,0,0,0,0c0,0,0,0,0,0c-0.2,1.1-0.5,2.3-0.9,3.6c-0.1,0.4-0.2,0.8-0.4,1.3c-0.8,2.6-1.9,5.5-3.3,8.8c-0.5,1.1-1,2.2-1.5,3.4
		c-0.3,0.6-0.5,1.2-0.7,1.8c0,0,0,0,0,0.1c0,0.1-0.1,0.3-0.1,0.4c0,0,0,0,0,0c-0.1,0.2-0.1,0.4-0.2,0.6c-0.1,0.3-0.2,0.5-0.3,0.8
		c0,0,0,0.1,0,0.1c0,0,0,0,0,0.1v0c0,0.1-0.1,0.2-0.1,0.3c0,0.1-0.1,0.2-0.1,0.3c-0.1,0.2-0.1,0.3-0.2,0.5c0,0.1-0.1,0.2-0.1,0.3
		c0,0.1-0.1,0.2-0.1,0.3c0,0.1-0.1,0.2-0.1,0.3c0,0.1,0,0.1-0.1,0.2c0,0.1-0.1,0.3-0.1,0.4c-0.1,0.4-0.2,0.7-0.3,1.1
		c0,0.1-0.1,0.2-0.1,0.4c0,0.1-0.1,0.3-0.1,0.4c0,0,0,0,0,0l0,0c0,0,0,0,0,0c0,0,0,0.1,0,0.1c-0.1,0.4-0.2,0.7-0.3,1.1l0,0
		c0,0.1,0,0.2-0.1,0.3c0,0.1,0,0.1,0,0.2c0,0,0,0,0,0c0,0,0,0,0,0c0,0.1-0.1,0.3-0.1,0.4c0,0,0,0,0,0c0,0,0,0,0,0
		c0,0.2-0.1,0.4-0.1,0.5c0,0.2-0.1,0.4-0.1,0.6c-0.1,0.3-0.1,0.7-0.2,1c-0.1,0.3-0.1,0.6-0.2,1c0,0.1,0,0.2-0.1,0.3
		c0,0.1,0,0.1,0,0.2c0,0.2-0.1,0.4-0.1,0.7c-0.1,0.3-0.1,0.7-0.1,1.1c0,0.3-0.1,0.6-0.1,0.8c0,0.1,0,0.3,0,0.4
		c0,0.3-0.1,0.6-0.1,0.9c0,0.4-0.1,0.8-0.1,1.2c0,0.2,0,0.4-0.1,0.6c0,0.2,0,0.3,0,0.5c0,0.2,0,0.4,0,0.6c0,0.2,0,0.4,0,0.5
		c0,0,0,0,0,0c0,0.3,0,0.6,0,1c0,0,0,0,0,0c0,0.1,0,0.2,0,0.4c0,0.1,0,0.2,0,0.3c0,0,0,0,0,0c0,0.2,0,0.4,0,0.6c0,0.3,0,0.6,0,0.9
		c0,0.3,0,0.6,0,0.9c0,0.2,0,0.3,0,0.5c0,0.1,0,0.2,0,0.3c0,0.1,0,0.3,0,0.4c0,0,0,0.1,0,0.1c0,0.5,0,1,0,1.5c0,0.2,0,0.4,0,0.7
		c0,0.1,0,0.1,0,0.2c0,0.2,0,0.4,0,0.6c0,0,0,0,0,0v0c0,0.3,0,0.6,0,0.8c0,0,0,0,0,0c0,0.1,0,0.3,0,0.4c0,0,0,0,0,0
		c0,0.6,0.1,1.1,0.1,1.7c0,0,0,0,0,0c0,0,0,0,0,0c0,0,0,0.1,0,0.1c0,0,0,0,0,0c0,0,0,0,0,0c0,0,0,0,0,0c0,0,0,0,0,0
		c0.1,0.7,0.1,1.3,0.2,2c0,0.2,0.1,0.5,0.1,0.7l0,0c0,0,0,0,0,0c0,0.2,0.1,0.4,0.1,0.7c0,0.1,0,0.1,0,0.2c0-0.1,0-0.1,0-0.2
		c0,0.3,0.1,0.5,0.1,0.8c0-0.1,0-0.3-0.1-0.4c0.1,0.5,0.2,1.1,0.2,1.6c-0.1-0.4-0.1-0.8-0.2-1.2c0.1,0.5,0.1,0.9,0.2,1.4
		c0,0.1,0,0.2,0,0.3c0,0,0,0,0,0c0,0.1,0,0.3,0.1,0.4c0,0,0,0,0,0c0,0,0,0,0,0c0,0.1,0,0.2,0,0.3c0.2,0.9,0.3,1.8,0.5,2.7
		c0,0,0,0,0,0c0,0,0,0,0,0c0,0.1,0.1,0.3,0.1,0.4c0.1,0.5,0.2,1.1,0.3,1.6c0.1,0.3,0.2,0.6,0.2,0.9c0.1,0.2,0.1,0.4,0.2,0.6
		c0,0,0,0,0,0c0,0,0,0,0,0.1c0.2,0.8,0.4,1.6,0.7,2.5c0,0,0,0,0,0c0,0.1,0,0.2,0.1,0.3c0,0,0,0,0,0c0.2,0.6,0.3,1.1,0.5,1.7
		c0,0,0,0.1,0,0.1c0.1,0.2,0.1,0.4,0.2,0.6c0.1,0.4,0.3,0.9,0.5,1.3c0,0,0,0,0,0c0,0,0,0.1,0.1,0.1c0.2,0.5,0.3,0.9,0.5,1.4
		c0.1,0.2,0.1,0.4,0.2,0.5c0,0,0,0,0,0c0,0.1,0,0.1,0.1,0.2l0,0c0.1,0.3,0.2,0.5,0.3,0.8c0.1,0.4,0.3,0.7,0.4,1l0,0
		c0,0.1,0.1,0.1,0.1,0.2c0.1,0.2,0.1,0.3,0.2,0.5c0.2,0.4,0.4,0.9,0.6,1.3c0,0,0,0,0,0c0,0.1,0.1,0.1,0.1,0.2
		c0.3,0.6,0.6,1.2,0.9,1.8c0,0.1,0.1,0.1,0.1,0.2c0,0,0,0,0,0c0.3,0.6,0.6,1.2,0.9,1.7c0,0,0,0,0,0c0,0,0,0.1,0.1,0.1c0,0,0,0,0,0
		c0.3,0.6,0.7,1.1,1,1.7c0,0,0,0,0,0c0,0,0,0.1,0,0.1c0.3,0.4,0.5,0.8,0.8,1.2c0.1,0.2,0.2,0.3,0.3,0.5l0,0l0,0
		c0.7,1.1,1.4,2.1,2.2,3c0,0,0,0,0,0c0.4,0.5,0.9,1,1.3,1.5c0.1,0.1,0.1,0.1,0.2,0.2c0.1,0.1,0.3,0.3,0.4,0.4
		c0.3,0.3,0.5,0.5,0.8,0.8c0.1,0.1,0.3,0.3,0.4,0.4c0.2,0.1,0.3,0.3,0.5,0.4c0.2,0.2,0.4,0.4,0.6,0.5c0.2,0.2,0.5,0.4,0.7,0.6
		c0.1,0.1,0.3,0.2,0.4,0.3c0,0,0,0,0,0l0,0c0.2,0.1,0.3,0.2,0.5,0.3c0.3,0.2,0.7,0.5,1.1,0.7c0.3,0.2,0.7,0.4,1,0.6
		c0.3,0.2,0.7,0.4,1,0.6c0.4,0.2,0.7,0.4,1.1,0.6c0.3,0.2,0.7,0.3,1,0.5c0.4,0.2,0.8,0.4,1.3,0.6c0.3,0.1,0.6,0.2,0.9,0.4
		c0.5,0.2,1,0.4,1.5,0.6c0.2,0.1,0.4,0.1,0.5,0.2c3.1,1.1,6.4,1.9,9.9,2.4c1.4,0.2,2.8,0.3,4.2,0.4c0,0,0.1,0,0.1,0
		c0.8,0,1.7,0.1,2.5,0.1c0,0,0.1,0,0.1,0c0.8,0,1.7,0,2.5,0h0c16.8-0.5,34.1-8.6,40.8-24.9c-13.2,8.8-23,7.8-29.5,3.4
		c-1.8-1.2-3.3-2.6-4.6-4.2c-0.1-0.1-0.2-0.2-0.2-0.3c-0.3-0.3-0.5-0.7-0.7-1c-0.3-0.4-0.6-0.8-0.9-1.3c-0.1-0.2-0.2-0.3-0.3-0.5
		c-0.3-0.4-0.5-0.9-0.8-1.4c-0.1-0.2-0.2-0.4-0.3-0.6c-0.2-0.4-0.3-0.7-0.5-1.1c0-0.1-0.1-0.2-0.1-0.2c-0.1-0.2-0.1-0.3-0.2-0.5
		c0-0.1,0-0.1-0.1-0.2c-0.2-0.6-0.4-1.2-0.6-1.8c-0.5-1.7-0.7-3.4-0.8-5.2c-0.2-5.4,1.7-10.7,4.5-15.7c0.1-0.1,0.1-0.2,0.2-0.4
		c0.2-0.3,0.4-0.6,0.5-0.9c0.1-0.2,0.2-0.4,0.3-0.6c0.2-0.3,0.4-0.6,0.5-0.9c0.1-0.2,0.2-0.4,0.4-0.6c0.3-0.5,0.7-1,1-1.5
		c0.1-0.2,0.3-0.4,0.4-0.6c0.2-0.3,0.4-0.5,0.6-0.8c0.1-0.2,0.3-0.4,0.4-0.6c0.2-0.3,0.4-0.5,0.6-0.8c0.2-0.2,0.3-0.4,0.5-0.6
		c0.2-0.2,0.4-0.5,0.5-0.7c0.2-0.3,0.4-0.5,0.6-0.8c0.3-0.4,0.6-0.8,1-1.2c0.1-0.1,0.2-0.3,0.4-0.4c0.4-0.5,0.8-0.9,1.1-1.4
		c0,0,0,0,0,0c0.1-0.1,0.2-0.2,0.3-0.3c0.4-0.5,0.8-0.9,1.1-1.3c0.1-0.1,0.2-0.3,0.4-0.4c0.3-0.4,0.7-0.8,1-1.1
		c0.1-0.1,0.2-0.2,0.3-0.4c0.4-0.5,0.8-0.9,1.2-1.4c0.2-0.2,0.3-0.4,0.5-0.6c0,0,0.1-0.1,0.1-0.1c0.1-0.2,0.3-0.3,0.4-0.5
		c0.1-0.1,0.2-0.2,0.3-0.3c0.1-0.1,0.2-0.2,0.2-0.3c0.1-0.1,0.1-0.1,0.2-0.2c0.1-0.1,0.1-0.2,0.2-0.2c0,0,0.1-0.1,0.1-0.1
		c0.1-0.1,0.2-0.2,0.3-0.3c0.1-0.1,0.1-0.2,0.2-0.2c0.1-0.1,0.1-0.1,0.2-0.2c0,0,0.1-0.1,0.1-0.1c0,0,0-0.1,0.1-0.1
		c0.3-0.3,0.5-0.6,0.7-0.9c1-1.2,2.3-2.7,3.8-4.6l0,0c0,0,0,0,0,0c0.2-0.2,0.3-0.4,0.5-0.6c0,0,0,0,0,0c0.1-0.1,0.1-0.1,0.2-0.2
		c0.1-0.1,0.2-0.3,0.3-0.4c0.1-0.1,0.1-0.2,0.2-0.3c0.1-0.1,0.2-0.3,0.3-0.4c0,0,0.1-0.1,0.1-0.1c0-0.1,0.1-0.1,0.1-0.2
		c0.1-0.1,0.2-0.3,0.3-0.4c0.1-0.1,0.2-0.2,0.2-0.3c0.1-0.2,0.2-0.3,0.3-0.5c0.1-0.1,0.2-0.2,0.2-0.3c0.1-0.2,0.2-0.3,0.4-0.5
		c0.1-0.1,0.1-0.2,0.2-0.3c0.2-0.3,0.4-0.5,0.5-0.8c0,0,0,0,0,0c0.2-0.3,0.4-0.6,0.6-0.9c0,0,0,0,0,0c0-0.1,0.1-0.2,0.1-0.2
		c0.1-0.2,0.3-0.4,0.4-0.6c0.1-0.1,0.2-0.2,0.2-0.4c0.1-0.2,0.2-0.4,0.4-0.6c0-0.1,0.1-0.1,0.1-0.2c0-0.1,0.1-0.1,0.1-0.2
		c0.1-0.2,0.2-0.4,0.3-0.6c0.1-0.1,0.2-0.3,0.2-0.4c0.1-0.2,0.2-0.4,0.3-0.6c0.1-0.1,0.1-0.2,0.2-0.3c0,0,0-0.1,0.1-0.1
		c0.1-0.2,0.2-0.4,0.4-0.6c0.1-0.1,0.1-0.2,0.2-0.3c0.2-0.3,0.4-0.6,0.5-1c0,0,0,0,0,0c0.2-0.3,0.4-0.7,0.5-1
		c0.1-0.1,0.1-0.2,0.2-0.3c0.1-0.2,0.2-0.5,0.4-0.7c0,0,0-0.1,0.1-0.1c0-0.1,0.1-0.2,0.1-0.3c0.1-0.2,0.2-0.4,0.3-0.7
		c0-0.1,0.1-0.1,0.1-0.2c0-0.1,0.1-0.2,0.1-0.3c0.1-0.2,0.2-0.4,0.3-0.7c0.1-0.2,0.1-0.3,0.2-0.5c0.1-0.2,0.2-0.5,0.3-0.7
		c0.1-0.1,0.1-0.3,0.2-0.4c0.1-0.3,0.2-0.5,0.3-0.8c0.1-0.1,0.1-0.3,0.2-0.4c0.1-0.4,0.3-0.7,0.4-1.1c0,0,0,0,0-0.1
		c0.1-0.4,0.3-0.8,0.4-1.2c0-0.1,0.1-0.3,0.1-0.4c0.1-0.3,0.2-0.6,0.3-0.8c0.1-0.2,0.1-0.3,0.2-0.5c0.1-0.3,0.2-0.5,0.2-0.8
		c0-0.1,0-0.1,0.1-0.2c0-0.1,0.1-0.2,0.1-0.3c0.1-0.3,0.2-0.5,0.2-0.8c0-0.2,0.1-0.3,0.1-0.5c0.1-0.3,0.1-0.5,0.2-0.8
		c0-0.1,0.1-0.2,0.1-0.3c0-0.1,0-0.1,0-0.2c0.1-0.3,0.1-0.6,0.2-0.9c0-0.1,0.1-0.3,0.1-0.4c0.1-0.4,0.2-0.8,0.2-1.2l0,0c0,0,0,0,0,0
		c0,0,0-0.1,0-0.1c0,0,0,0,0-0.1c0.1-0.4,0.2-0.9,0.3-1.4c0,0,0-0.1,0-0.1c0-0.1,0-0.2,0-0.2c0,0,0-0.1,0-0.1
		c0.1-0.3,0.1-0.6,0.1-0.9c0-0.1,0-0.1,0-0.2c0-0.1,0-0.2,0-0.4c0-0.1,0-0.1,0-0.2c0-0.1,0-0.2,0-0.3c0-0.1,0-0.2,0-0.3
		c0-0.2,0-0.4,0.1-0.6c0-0.3,0.1-0.5,0.1-0.8c0-0.1,0-0.1,0-0.2c0-0.1,0-0.2,0-0.2c0-0.1,0-0.2,0-0.3c0-0.3,0-0.6,0.1-0.9
		c0-0.1,0-0.3,0-0.4c0-0.1,0-0.1,0-0.2c0,0,0,0,0,0c0,0,0,0,0,0c0-0.3,0-0.6,0-0.9c0-0.1,0-0.3,0-0.4c0,0,0,0,0,0c0,0,0,0,0,0
		c0-0.4,0-0.8,0-1.3c0,0,0,0,0-0.1c0,0,0-0.1,0-0.1c0,0,0,0,0,0v0C461.5,132.8,461.5,132.4,461.5,132z"/>
</g>
<g>
	<path fill="#DD273F" d="M274.4,136.3C274.4,136.3,274.5,136.3,274.4,136.3C274.5,136.3,274.4,136.3,274.4,136.3
		C274.4,136.3,274.4,136.3,274.4,136.3z"/>
	<path fill="#DD273F" d="M240.9,150.4c0.3-0.1,0.7-0.1,1-0.2c-0.5,0.1-0.9,0.2-1.4,0.2C240.7,150.5,240.8,150.4,240.9,150.4z"/>
	<path fill="#DD273F" d="M370.1,89.6c0-0.9-0.1-1.8-0.2-2.7c0-0.5-0.1-0.9-0.1-1.4c-0.2-1.4-0.4-2.8-0.6-4.1c-0.3-1.4-0.6-2.8-1-4.2
		c-0.1-0.5-0.3-0.9-0.4-1.4c-0.1-0.5-0.3-0.9-0.5-1.4c-0.3-0.9-0.7-1.8-1.1-2.7c-1.1-2.7-2.6-5.4-4.3-8c-0.6-0.9-1.2-1.7-1.9-2.6
		c-3.6-4.6-8.4-8.9-14.5-12.5c-1.1-0.7-2.3-1.3-3.5-1.9c-4.2-2.1-9-4-14.5-5.5c-0.7-0.2-1.4-0.4-2-0.5c-0.1,0-0.1,0-0.2,0
		c-0.2-0.1-0.5-0.1-0.7-0.2c-0.4-0.1-0.8-0.2-1.1-0.3c-0.1,0-0.2,0-0.3-0.1c-0.1,0-0.2,0-0.2-0.1c-0.2,0-0.4-0.1-0.6-0.1
		c-0.3-0.1-0.6-0.1-0.8-0.2c-0.2,0-0.3-0.1-0.5-0.1c-0.3-0.1-0.6-0.1-0.8-0.2c-0.2,0-0.4-0.1-0.6-0.1c-0.2,0-0.4-0.1-0.6-0.1
		c-0.2,0-0.3-0.1-0.5-0.1c-0.1,0-0.2,0-0.4-0.1c-0.2,0-0.3-0.1-0.5-0.1c-0.2,0-0.5-0.1-0.7-0.1c0,0,0,0-0.1,0
		c-0.3,0-0.5-0.1-0.8-0.1c-0.1,0-0.2,0-0.3,0c-0.2,0-0.5-0.1-0.7-0.1c-0.1,0-0.2,0-0.3,0c-0.2,0-0.4-0.1-0.6-0.1c-0.1,0-0.1,0-0.2,0
		c-0.2,0-0.4,0-0.6-0.1c-0.4,0-0.8-0.1-1.1-0.1c0,0,0,0,0,0c0,0,0,0,0,0c-0.2,0-0.4,0-0.6,0c-0.4,0-0.8-0.1-1.2-0.1c0,0-0.1,0-0.1,0
		c-0.2,0-0.4,0-0.6,0c-0.3,0-0.7,0-1-0.1c-0.1,0-0.2,0-0.2,0c-0.2,0-0.5,0-0.7,0c-0.3,0-0.5,0-0.8,0c-0.1,0-0.2,0-0.4,0
		c-0.2,0-0.5,0-0.7,0c-0.2,0-0.4,0-0.6,0c-0.2,0-0.3,0-0.5,0c0,0,0,0,0,0c-0.1,0-0.3,0-0.4,0c-0.1,0-0.2,0-0.3,0c-0.2,0-0.3,0-0.5,0
		c-0.1,0-0.3,0-0.4,0c-0.1,0-0.1,0-0.2,0c-0.2,0-0.3,0-0.5,0c-0.1,0-0.1,0-0.2,0c-0.1,0-0.2,0-0.3,0c-0.1,0-0.3,0-0.4,0
		c-0.2,0-0.3,0-0.5,0c-0.2,0-0.4,0-0.5,0c-0.1,0-0.1,0-0.2,0c-0.1,0-0.2,0-0.4,0c-0.4,0-0.8,0.1-1.1,0.1c0,0,0,0,0,0c0,0,0,0,0,0
		c-0.1,0-0.2,0-0.3,0c-0.4,0-0.8,0.1-1.2,0.2c0,0,0,0,0,0c0,0-0.1,0-0.1,0c-0.1,0-0.3,0-0.4,0.1c-0.3,0-0.6,0.1-1,0.2
		c0,0-0.1,0-0.1,0c-0.2,0-0.4,0.1-0.6,0.1c-0.2,0-0.5,0.1-0.7,0.1c-0.1,0-0.1,0-0.2,0c0,0,0,0,0,0c-0.2,0-0.4,0.1-0.6,0.1
		c-0.2,0-0.4,0.1-0.6,0.1c-0.1,0-0.1,0-0.2,0c-0.1,0-0.1,0-0.2,0c-0.2,0-0.4,0.1-0.6,0.1c-0.2,0-0.3,0.1-0.5,0.1c-0.1,0-0.1,0-0.2,0
		c-0.1,0-0.2,0.1-0.3,0.1c-0.2,0-0.4,0.1-0.6,0.1c-0.1,0-0.2,0.1-0.3,0.1c0,0-0.1,0-0.1,0c-0.2,0.1-0.4,0.1-0.5,0.2
		c-0.2,0-0.3,0.1-0.5,0.1c-0.1,0-0.2,0-0.2,0.1c0,0-0.1,0-0.1,0c-0.4,0.1-0.7,0.2-1.1,0.4l0,0c0,0,0,0,0,0c0,0-0.1,0-0.1,0
		c0,0,0,0-0.1,0c-0.4,0.1-0.8,0.3-1.2,0.4c0,0,0,0,0,0c0,0,0,0,0,0c-0.1,0-0.2,0.1-0.4,0.1c-0.3,0.1-0.6,0.2-0.9,0.3c0,0,0,0,0,0
		c0,0,0,0,0,0c-0.1,0-0.1,0-0.2,0.1c-0.1,0-0.2,0.1-0.4,0.1c-0.3,0.1-0.6,0.2-0.8,0.3c-0.1,0-0.2,0.1-0.2,0.1
		c-0.1,0-0.1,0.1-0.2,0.1c0,0-0.1,0-0.1,0.1c-0.2,0.1-0.5,0.2-0.7,0.3c-0.2,0.1-0.3,0.2-0.5,0.2c-0.1,0-0.2,0.1-0.3,0.1
		c-0.1,0-0.2,0.1-0.3,0.2c-0.1,0-0.1,0.1-0.2,0.1c-0.1,0.1-0.2,0.1-0.3,0.2c0,0-0.1,0.1-0.1,0.1c-0.3,0.1-0.6,0.3-0.8,0.4
		c0,0-0.1,0-0.1,0.1c-0.1,0-0.1,0.1-0.2,0.1c0,0,0,0-0.1,0c-0.4,0.2-0.8,0.4-1.2,0.7c0,0,0,0-0.1,0c0,0-0.1,0-0.1,0.1c0,0,0,0,0,0
		c0,0,0,0,0,0c-0.3,0.2-0.7,0.4-1,0.6c-0.1,0.1-0.3,0.2-0.4,0.2c-0.3,0.2-0.5,0.3-0.8,0.5c0,0-0.1,0.1-0.1,0.1
		c-0.1,0.1-0.2,0.1-0.3,0.2c-0.2,0.2-0.5,0.3-0.7,0.5c-0.1,0.1-0.3,0.2-0.4,0.3c-0.2,0.2-0.4,0.3-0.7,0.5c-0.1,0.1-0.2,0.1-0.2,0.2
		c-0.1,0-0.1,0.1-0.2,0.1c-0.2,0.2-0.4,0.3-0.7,0.5c-0.1,0.1-0.3,0.2-0.4,0.3c-0.2,0.2-0.5,0.4-0.7,0.5c-0.1,0.1-0.2,0.2-0.3,0.2
		c-0.3,0.3-0.7,0.5-1,0.8c0,0,0,0,0,0c-0.3,0.3-0.6,0.5-0.9,0.8c-0.1,0.1-0.2,0.2-0.3,0.3c-0.2,0.2-0.4,0.4-0.6,0.5
		c-0.1,0.1-0.2,0.2-0.4,0.3c-0.2,0.2-0.4,0.3-0.6,0.5c-0.1,0.1-0.2,0.2-0.4,0.3c-0.2,0.2-0.4,0.3-0.5,0.5c-0.1,0.1-0.1,0.1-0.2,0.2
		c-0.1,0-0.1,0.1-0.2,0.1c-0.2,0.2-0.4,0.3-0.5,0.5c-0.1,0.1-0.2,0.1-0.2,0.2c0,0-0.1,0.1-0.1,0.1c-0.2,0.2-0.4,0.4-0.6,0.6
		c-0.1,0.1-0.2,0.2-0.3,0.3c-0.3,0.3-0.5,0.6-0.8,0.8c0,0,0,0,0,0c-0.3,0.3-0.5,0.5-0.8,0.8c-0.1,0.1-0.2,0.2-0.3,0.3
		c-0.2,0.2-0.3,0.4-0.5,0.6c0,0-0.1,0.1-0.1,0.1c-0.1,0.1-0.1,0.2-0.2,0.2c-0.2,0.2-0.3,0.3-0.4,0.5c-0.1,0.1-0.2,0.2-0.3,0.3
		c-0.1,0.2-0.3,0.3-0.4,0.5c-0.1,0.1-0.1,0.1-0.2,0.2c0,0-0.1,0.1-0.1,0.1c-0.1,0.2-0.3,0.3-0.4,0.5c-0.1,0.1-0.2,0.2-0.3,0.3
		c-0.2,0.2-0.3,0.4-0.4,0.6c-0.1,0.1-0.1,0.1-0.2,0.2c0,0,0,0,0,0c-0.2,0.3-0.4,0.5-0.6,0.8c0,0,0,0,0,0c0,0,0,0,0,0
		c-0.2,0.3-0.4,0.5-0.6,0.8c-0.1,0.1-0.1,0.2-0.2,0.3c-0.1,0.2-0.3,0.3-0.4,0.5c-0.1,0.1-0.2,0.2-0.2,0.3c-0.1,0.2-0.2,0.3-0.3,0.5
		c-0.1,0.1-0.2,0.2-0.2,0.3c-0.1,0.2-0.2,0.3-0.3,0.5c0,0.1-0.1,0.1-0.1,0.2c0,0-0.1,0.1-0.1,0.1c-0.1,0.2-0.2,0.3-0.3,0.5
		c-0.1,0.1-0.1,0.2-0.2,0.3c-0.1,0.2-0.2,0.3-0.3,0.5c0,0.1-0.1,0.1-0.1,0.2c0,0,0,0,0,0c-0.2,0.2-0.3,0.5-0.4,0.7c0,0,0,0,0,0l0,0
		c-1.3,2-2.3,3.7-3.2,5c-0.2,0.3-0.4,0.6-0.6,1c0,0,0,0.1-0.1,0.1c0,0,0,0.1-0.1,0.1c0,0.1-0.1,0.1-0.1,0.2
		c-0.1,0.1-0.1,0.2-0.2,0.3c-0.1,0.1-0.2,0.3-0.2,0.4c0,0-0.1,0.1-0.1,0.1c-0.1,0.1-0.1,0.2-0.2,0.3c0,0.1-0.1,0.1-0.1,0.2
		c-0.1,0.1-0.1,0.2-0.2,0.3c-0.1,0.1-0.1,0.2-0.2,0.3c-0.1,0.2-0.2,0.4-0.3,0.6c0,0-0.1,0.1-0.1,0.1c-0.1,0.2-0.3,0.4-0.4,0.6
		c-0.3,0.5-0.6,1.1-0.9,1.6c-0.1,0.1-0.2,0.3-0.3,0.4c-0.2,0.4-0.5,0.9-0.8,1.3c-0.1,0.2-0.2,0.3-0.3,0.5c-0.3,0.5-0.6,1-0.9,1.5
		c-0.1,0.1-0.1,0.2-0.2,0.3c0,0,0,0,0,0c-0.3,0.5-0.6,1-0.9,1.5c-0.1,0.2-0.2,0.3-0.3,0.5c-0.3,0.4-0.6,0.9-0.8,1.3
		c-0.2,0.3-0.4,0.5-0.5,0.8c-0.2,0.2-0.3,0.5-0.5,0.7c-0.2,0.2-0.3,0.4-0.5,0.7c-0.2,0.3-0.4,0.5-0.5,0.8c-0.1,0.2-0.3,0.4-0.4,0.6
		c-0.2,0.3-0.4,0.5-0.6,0.8c-0.1,0.2-0.3,0.4-0.4,0.5c-0.4,0.5-0.7,1-1.1,1.4c-0.1,0.2-0.3,0.4-0.4,0.5c-0.2,0.3-0.4,0.5-0.6,0.8
		c-0.1,0.2-0.3,0.3-0.4,0.5c-0.2,0.3-0.5,0.5-0.7,0.8c-0.1,0.1-0.2,0.2-0.3,0.3c-3.8,4.2-8.3,7.7-13.4,9.2c-1.6,0.5-3.4,0.8-5.1,0.9
		c-0.6,0-1.2,0-1.9,0c-0.1,0-0.1,0-0.2,0c-0.2,0-0.4,0-0.5,0c0,0-0.1,0-0.1,0c-0.4,0-0.9-0.1-1.3-0.1c-0.2,0-0.5-0.1-0.7-0.1
		c-0.5-0.1-1-0.2-1.5-0.3c-0.2,0-0.4-0.1-0.5-0.1c-0.5-0.1-1-0.3-1.5-0.4c-0.4-0.1-0.8-0.2-1.2-0.4c-0.1,0-0.2-0.1-0.3-0.1
		c-1.9-0.7-3.7-1.7-5.4-3c-6.3-4.8-10.3-13.8-6-29.1c-13.4,11.5-15.6,30.4-10.9,46.6c0,0,0,0,0,0c0.2,0.8,0.5,1.6,0.8,2.4
		c0,0,0,0.1,0,0.1c0.3,0.8,0.6,1.6,0.9,2.3c0,0,0,0.1,0,0.1c0.5,1.2,1,2.4,1.6,3.5c1.6,3.2,3.4,6.2,5.5,8.9c0.1,0.1,0.2,0.3,0.3,0.5
		c0.3,0.4,0.7,0.8,1,1.2c0.2,0.2,0.4,0.5,0.6,0.7c0.3,0.4,0.6,0.7,1,1c0.3,0.3,0.5,0.5,0.8,0.8c0.3,0.3,0.6,0.6,0.9,0.9
		c0.3,0.3,0.6,0.5,0.9,0.8c0.3,0.3,0.6,0.5,0.9,0.8c0.3,0.3,0.7,0.5,1,0.8c0.2,0.1,0.3,0.2,0.5,0.4l0,0l0,0c0.1,0.1,0.3,0.2,0.4,0.3
		c0.2,0.2,0.5,0.3,0.8,0.5c0.2,0.2,0.5,0.3,0.7,0.4c0.2,0.1,0.3,0.2,0.5,0.3c0.2,0.1,0.3,0.2,0.5,0.3c0.3,0.2,0.7,0.3,1,0.5
		c0.2,0.1,0.4,0.2,0.5,0.3c0.1,0,0.2,0.1,0.3,0.1c0.6,0.3,1.2,0.5,1.9,0.8c0,0,0,0,0,0c1.4,0.5,2.7,0.9,4.2,1.3
		c0.5,0.1,0.9,0.2,1.4,0.3c0,0,0.1,0,0.1,0c0,0,0,0,0,0c0.6,0.2,1.3,0.3,1.9,0.4c0,0,0,0,0,0c0,0,0.1,0,0.1,0c0,0,0,0,0,0
		c0.6,0.1,1.3,0.2,1.9,0.3c0,0,0,0,0,0c0.1,0,0.1,0,0.2,0c0.6,0.1,1.3,0.2,1.9,0.3c0.1,0,0.1,0,0.2,0c0,0,0,0,0,0
		c0.6,0.1,1.2,0.1,1.8,0.2c0,0,0.1,0,0.1,0l0,0l0,0c0.1,0,0.1,0,0.2,0c0,0,0,0,0,0c0.4,0,0.7,0.1,1.1,0.1c0.3,0,0.6,0,0.9,0l0,0
		c-0.7,0-1.3-0.1-2-0.1h0c0.7,0.1,1.3,0.1,2,0.1l0,0c0.1,0,0.1,0,0.2,0l0,0c0.3,0,0.5,0,0.8,0c0.4,0,0.8,0,1.3,0l0,0
		c0.1,0,0.1,0,0.2,0c0,0,0,0,0,0c0.5,0,0.9,0,1.4,0c0.2,0,0.5,0,0.7,0c0,0,0,0,0,0c-0.7,0-1.4,0-2.1,0l0,0c0.7,0,1.4,0,2.1,0
		c0,0,0,0,0,0c0,0,0.1,0,0.1,0c0.5,0,1.1,0,1.6,0c0,0,0.1,0,0.1,0l0,0c0,0,0,0,0,0c0,0,0,0,0,0c0.1,0,0.2,0,0.3,0
		c0.8,0,1.7-0.1,2.5-0.1c0,0,0,0,0,0c0,0,0,0,0,0c0.2,0,0.4,0,0.6-0.1c0.3,0,0.6,0,1-0.1c0.5-0.1,1.1-0.1,1.6-0.2c0.1,0,0.3,0,0.4,0
		c0,0,0,0,0,0c0,0,0,0,0,0c0.9-0.1,1.8-0.2,2.7-0.4c0.1,0,0.2,0,0.3-0.1c0,0,0,0,0,0s0,0,0,0c0.1,0,0.3,0,0.4-0.1
		c0.8-0.1,1.5-0.3,2.3-0.4c-0.3,0.1-0.6,0.1-0.9,0.2c0.4-0.1,0.8-0.1,1.2-0.2c-0.1,0-0.1,0-0.2,0c0.1,0,0.1,0,0.2,0
		c0.2,0,0.4-0.1,0.7-0.1c0.2,0,0.5-0.1,0.7-0.1c0.7-0.1,1.3-0.3,2-0.4c0,0,0,0,0,0c0,0,0,0,0,0c0,0,0,0,0,0c0,0,0.1,0,0.1,0
		c0,0,0,0,0,0c0,0,0,0,0,0c0.6-0.1,1.1-0.3,1.6-0.4c0,0,0,0,0,0c0.1,0,0.3-0.1,0.4-0.1c0,0,0,0,0,0c0.3-0.1,0.5-0.1,0.8-0.2
		c0,0,0,0,0,0c0,0,0,0,0,0c0.2-0.1,0.4-0.1,0.6-0.2c0.1,0,0.1,0,0.2-0.1c0.2-0.1,0.4-0.1,0.6-0.2c0.5-0.1,1-0.3,1.4-0.4
		c0,0,0.1,0,0.1,0c0.1,0,0.3-0.1,0.4-0.1c0.1,0,0.2-0.1,0.2-0.1c0.1,0,0.3-0.1,0.4-0.1c0.3-0.1,0.6-0.2,0.9-0.3
		c0.3-0.1,0.6-0.2,0.8-0.3c0.2-0.1,0.4-0.1,0.5-0.2c0,0,0,0,0,0c0.1,0,0.2-0.1,0.3-0.1c0.1-0.1,0.3-0.1,0.4-0.2c0,0,0,0,0,0
		c0.3-0.1,0.6-0.2,0.9-0.3l0,0c0.2-0.1,0.3-0.1,0.5-0.2c0.2-0.1,0.4-0.2,0.6-0.2c0.1-0.1,0.3-0.1,0.4-0.2c0.2-0.1,0.4-0.2,0.6-0.2
		c0.4-0.2,0.7-0.3,1.1-0.5c0.3-0.1,0.5-0.2,0.8-0.4c0.1-0.1,0.3-0.1,0.4-0.2c0.3-0.1,0.5-0.2,0.8-0.4c0.3-0.2,0.6-0.3,1-0.5
		c0.2-0.1,0.4-0.2,0.6-0.3c0.1,0,0.1-0.1,0.2-0.1c0.1,0,0.2-0.1,0.3-0.2c0.3-0.2,0.6-0.3,0.9-0.5c0.2-0.1,0.4-0.2,0.6-0.3
		c0,0,0,0,0,0c0,0,0,0,0,0c0.1,0,0.2-0.1,0.3-0.1c0.2-0.1,0.3-0.2,0.5-0.3c0.2-0.1,0.3-0.2,0.5-0.3c0,0,0,0,0,0c0,0,0,0,0,0
		c0.1-0.1,0.3-0.2,0.4-0.2c0,0,0,0,0,0c0,0,0,0,0,0c0.1,0,0.1-0.1,0.2-0.1c0.1,0,0.2-0.1,0.2-0.2c0,0,0,0,0,0l0,0
		c0.3-0.2,0.6-0.4,1-0.6c0,0,0.1-0.1,0.1-0.1c0.1-0.1,0.2-0.2,0.4-0.2c0,0,0,0,0,0c0,0,0,0,0,0c0.1-0.1,0.2-0.1,0.3-0.2c0,0,0,0,0,0
		c0.3-0.2,0.6-0.4,0.9-0.6c0.1-0.1,0.2-0.1,0.3-0.2c0.1,0,0.1-0.1,0.2-0.1c0.1-0.1,0.1-0.1,0.2-0.2l0,0l0,0c0.1-0.1,0.2-0.1,0.2-0.2
		c0.1-0.1,0.2-0.1,0.3-0.2c0.1-0.1,0.3-0.2,0.4-0.3c0.1-0.1,0.2-0.1,0.2-0.2c0.1-0.1,0.2-0.1,0.3-0.2h0c0,0,0,0,0,0
		c0,0,0.1,0,0.1-0.1c0.2-0.2,0.4-0.3,0.6-0.5c0.2-0.1,0.3-0.3,0.5-0.4c0,0,0,0,0,0c0,0,0,0,0,0c0.1-0.1,0.2-0.2,0.3-0.3
		c0,0,0,0,0.1,0c0.5-0.4,1-0.8,1.5-1.3c1-0.9,1.9-1.7,2.8-2.5c2.7-2.4,5.1-4.3,7.3-5.9c0.4-0.3,0.7-0.5,1.1-0.8
		c1.1-0.7,2.1-1.4,3.2-2c0.4-0.2,0.7-0.4,1.1-0.6c0.1,0,0.2-0.1,0.3-0.1c0.3-0.1,0.6-0.3,0.8-0.4c0.1,0,0.2-0.1,0.3-0.1
		c0.3-0.1,0.6-0.3,0.9-0.4c0.1,0,0.1-0.1,0.2-0.1c0.7-0.3,1.4-0.5,2.1-0.7c0.1,0,0.2,0,0.2-0.1c0.3-0.1,0.5-0.1,0.8-0.2
		c0.1,0,0.2,0,0.3-0.1c0.3-0.1,0.5-0.1,0.8-0.2c0.1,0,0.1,0,0.2,0c0.7-0.1,1.3-0.2,1.9-0.3c0.1,0,0.2,0,0.3,0c0.2,0,0.5,0,0.7,0
		c0.1,0,0.2,0,0.3,0c0.2,0,0.5,0,0.7,0c0.1,0,0.2,0,0.3,0c0.6,0,1.3,0.1,1.9,0.1c0.1,0,0.2,0,0.3,0c0.2,0,0.5,0.1,0.7,0.1
		c0.1,0,0.2,0,0.3,0c0.2,0,0.5,0.1,0.7,0.1c0.1,0,0.2,0,0.3,0.1c0.3,0.1,0.7,0.1,1,0.2c0,0,0,0,0,0c0.4,0.1,0.8,0.2,1.3,0.4
		c0.2,0.1,0.4,0.2,0.6,0.4c0.6,0.4,1.3,0.9,2,1.6c2.2,2.1,4.3,5.5,5.9,9.3c0.3,0.8,0.6,1.6,0.8,2.4c0.1,0.4,0.2,0.8,0.4,1.2
		c0.3,1,0.5,2,0.7,3.1c0.1,0.7,0.2,1.4,0.3,2.1c0,0.1,0,0.3,0,0.4c0.1,0.6,0.1,1.2,0.1,1.8c0,0.3,0,0.5,0,0.8c0,0.1,0,0.1,0,0.2
		c0,0.5,0,1-0.1,1.4c0,0.1,0,0.2,0,0.3c-0.1,1.1-0.3,2.1-0.5,3.1c0,0,0,0.1,0,0.1v0l0,0c-0.1,0.5-0.3,1-0.5,1.5
		c0,0.1-0.1,0.2-0.1,0.2c-0.2,0.5-0.4,1-0.6,1.5c0.2,0,0.4,0.1,0.6,0.1c1.2,0.2,2.5,0.4,3.7,0.6c0.1,0,0.3,0.1,0.4,0.1
		c2.4,0.5,4.7,1.1,7,1.8c0.1,0,0.1,0,0.2,0.1c1.2,0.4,2.3,0.7,3.4,1.2c0,0,0,0,0,0c0.1,0,0.2,0.1,0.2,0.1c0,0,0,0,0,0
		c0.8,0.3,1.6,0.6,2.4,1l0,0c0.3,0.1,0.6,0.3,0.9,0.4c0.6,0.2,1.2,0.5,1.7,0.8c0.9,0.4,1.7,0.8,2.6,1.3c-1-1.7-1.7-3.5-2.2-5.2
		c-0.8-2.9-1-5.8-0.5-8.4c0.4-2.1,1.4-4.1,2.6-6c0.6-0.9,1.3-1.8,2.1-2.7c0.5-0.6,1.1-1.2,1.6-1.8c0.9-0.9,1.8-1.7,2.7-2.6
		c0.6-0.6,1.3-1.2,1.9-1.7c0.6-0.6,1.3-1.2,2-1.8c0.7-0.6,1.3-1.2,2-1.8c1-0.9,2-1.8,3-2.8c0.6-0.6,1.3-1.3,1.9-2
		c0.6-0.7,1.2-1.4,1.8-2.1c0.6-0.7,1.2-1.4,1.7-2.2c0.8-1.1,1.6-2.3,2.3-3.5c0.3-0.5,0.6-1.1,0.9-1.7c1-2,1.9-4.4,2.6-6.9
		c0.2-0.7,0.4-1.5,0.6-2.2s0.4-1.6,0.5-2.3c0.5-2.4,0.8-4.9,1-7.5c0.1-0.9,0.1-1.8,0.1-2.6C370.2,91.4,370.2,90.5,370.1,89.6z"/>
</g>
<circle fill="#FFFFFF" cx="459" cy="316" r="1.6"/>
<path fill="#123D6B" stroke="#0C2E4C" stroke-width="4" stroke-miterlimit="10" d="M454.1,376.1c0,0-12.1,49.6-12.4,98.4
	c-0.3,54,48.7,19.7,57.7,9.7c11.8-13.1-14.3-37,0-142.8"/>
<path fill="#123D6B" stroke="#0C2E4C" stroke-width="4" stroke-miterlimit="10" d="M331.4,358.1c-0.3,47.7,57.9,128.8,43.1,178.1
	c-1.6,5.3,8.9,5.9,23.6,5.9c12.6,0,21.6-0.9,31.7-5.3c14.6-6.5,17-23.7,14.3-33.3c-10-36-57.2-94.3-73.3-131.7"/>
<path fill="#1C4A85" stroke="#231F20" stroke-width="4" stroke-miterlimit="10" d="M483.1,396.2c0,0-81.1-52.7-50.6-119.7
	c64-13.6,71.8,77.2,71.8,77.2l5.3,41.8"/>
<path fill="#1C4A85" stroke="#123D6B" stroke-width="4" stroke-miterlimit="10" d="M460.5,380.7c0,0-51.1,14.8-95.4,3.2
	c-32.9-8.6-44.8-32.8-50-56.5c-8-36,1.2-64,1.2-64s65.2-43.1,68.8-23.6c7.7,42,17.8,53.7,17.8,53.7c19.4-13.6,22.1-15.1,28.2-20.1"
	/>
<g>
	<path fill="#1C4A85" d="M433.7,337.8c9.5,39,28.8,46.1,44.7,59.2c22.4,18.6,37.4,58.9,38.4,95.3c0.8,29.6-7.1,50-6.6,54.7
		c0.5,4.7,3.3,8.7,34.8,7.4c23.4-0.9,32.4-1.5,34.8-14.2c2.4-12.8-2.9-35.7-11.8-67.2c-10.9-38.8-30.5-72.9-37-81.5
		c0,0-11.2-1.8-18.4,0.5"/>
	<path fill="#123D6B" d="M433.7,337.8c2.1,4.6,3.9,9.1,5.9,13.6c2,4.4,4.1,8.8,6.7,12.8c1.3,2,2.6,4,4.1,5.9c1.5,1.9,3,3.7,4.7,5.4
		c3.3,3.4,7,6.6,10.9,9.5c3.9,3,7.9,5.8,11.9,9l1.5,1.2c0.6,0.5,1,0.8,1.4,1.2c0.9,0.8,1.9,1.7,2.8,2.6c1.8,1.8,3.5,3.7,5.1,5.6
		c6.5,7.8,11.6,16.6,15.7,25.7c4.1,9.1,7.3,18.7,9.7,28.4c2.3,9.7,3.9,19.7,4.4,29.7c0.5,10,0.1,20.1-1.3,30
		c-0.7,5-1.5,9.9-2.6,14.8l-1.6,7.3c-0.3,1.2-0.5,2.4-0.7,3.6c-0.1,0.6-0.2,1.2-0.2,1.7c0,0.3,0,0.5,0,0.7c0,0.2,0,0.3,0.1,0.7
		c0.1,1,0.4,1.6,1,2.2c0.6,0.6,1.5,1.1,2.5,1.4c2,0.7,4.4,1.1,6.8,1.4c4.8,0.5,9.7,0.6,14.6,0.5c4.9-0.1,9.8-0.3,14.8-0.5
		c4.9-0.3,9.8-0.5,14.5-1.4c2.3-0.5,4.5-1.1,6.3-2.2c1.8-1.1,3.2-2.6,4-4.6c0.9-2,1.3-4.3,1.6-6.6c0.2-2.3,0.2-4.7,0.1-7.1
		c-0.2-4.8-0.9-9.7-1.8-14.5c-0.9-4.8-1.9-9.6-3.1-14.4c-2.3-9.6-4.9-19.1-7.6-28.6c-0.7-2.4-1.4-4.8-2.1-7.1
		c-0.8-2.3-1.5-4.7-2.3-7c-0.8-2.3-1.6-4.6-2.5-6.9c-0.9-2.3-1.7-4.6-2.7-6.9c-3.6-9.1-7.7-18.1-12.1-26.9c-2.2-4.4-4.5-8.7-7-13
		c-2.4-4.2-5-8.5-7.8-12.4l1.2,0.7h0c-0.7-0.1-1.5-0.2-2.2-0.3c-0.7-0.1-1.5-0.2-2.2-0.2c-1.5-0.1-3-0.2-4.5-0.2
		c-1.5,0-3,0.1-4.4,0.2c-0.4,0-0.7,0.1-1.1,0.2c-0.4,0-0.7,0.1-1.1,0.2c-0.3,0.1-0.7,0.1-1,0.2l-1,0.3l-1.2-3.6l1.2-0.3
		c0.4-0.1,0.8-0.2,1.2-0.3c0.4-0.1,0.8-0.2,1.2-0.2c0.4-0.1,0.8-0.1,1.2-0.2c1.6-0.2,3.2-0.3,4.8-0.3c1.6,0,3.2,0.1,4.8,0.2
		c0.8,0.1,1.6,0.1,2.4,0.2c0.8,0.1,1.6,0.2,2.4,0.3l0,0l0.8,0.1l0.4,0.6c3,4.2,5.5,8.4,8,12.8c2.5,4.3,4.8,8.7,7.1,13.2
		c4.5,8.9,8.6,18,12.3,27.2c0.9,2.3,1.8,4.6,2.7,7c0.9,2.3,1.7,4.7,2.5,7c0.8,2.4,1.6,4.7,2.4,7.1c0.7,2.4,1.4,4.7,2.1,7.1
		c2.7,9.6,5.3,19.1,7.6,28.8c1.2,4.8,2.2,9.7,3.1,14.6c0.9,4.9,1.6,9.9,1.9,15c0.1,2.5,0.1,5.1-0.1,7.7c-0.1,1.4-0.3,2.6-0.6,3.9
		c-0.3,1.3-0.7,2.6-1.3,3.9c-0.6,1.3-1.3,2.5-2.3,3.6c-0.9,1.1-2.1,2-3.3,2.8c-2.4,1.5-5,2.2-7.6,2.7c-5.1,1-10.1,1.2-15,1.5
		c-5,0.2-9.9,0.4-14.9,0.5c-5,0-10,0-15.1-0.5c-2.5-0.3-5.1-0.7-7.7-1.6c-1.3-0.5-2.7-1.2-3.9-2.3c-0.6-0.6-1.1-1.3-1.4-2.1
		c-0.3-0.8-0.5-1.5-0.6-2.3c0-0.2-0.1-0.7-0.1-1.2c0-0.4,0-0.8,0.1-1.1c0.1-0.7,0.2-1.3,0.3-2c0.2-1.3,0.5-2.5,0.8-3.7l1.6-7.2
		c1-4.8,1.9-9.6,2.5-14.5c1.3-9.7,1.8-19.5,1.2-29.2c-0.5-9.7-2-19.5-4.3-29c-2.3-9.5-5.4-18.8-9.4-27.7c-4.1-8.9-9-17.4-15.2-24.8
		c-3.1-3.7-6.5-7-10.3-10c-3.8-3-7.9-5.8-11.9-8.8c-2-1.5-4-3-5.9-4.7c-1.9-1.6-3.8-3.4-5.6-5.2c-3.5-3.7-6.7-7.8-9.3-12.2
		C437.6,357.6,434.3,347.8,433.7,337.8z"/>
</g>
<g>
	<path fill="#1C4A85" d="M388.1,253.3c-5-19.5,1.8-51.4-0.7-70.5C383,148.9,354.5,81.3,265,110.5c-17.5,5.7-36.8,21.5-45.2,44.9
		c-6.7,18.4-7,40.2,3.3,72.8c0,0,79.2,33.1,92.9,38.2c0,0-3,15.2-3.5,29.8"/>
	<path fill="#123D6B" d="M386.2,253.7c-0.5-1.9-0.9-4-1.1-6c-0.3-2-0.5-4-0.6-6c-0.2-4-0.2-8-0.2-12c0.2-7.9,0.8-15.8,1.3-23.6
		c0.2-3.9,0.4-7.8,0.4-11.7c0-3.9-0.1-7.8-0.6-11.5c-1-7.7-2.9-15.2-5.6-22.4c-2.6-7.3-6-14.2-10.2-20.7c-4.2-6.4-9.2-12.3-15-17.3
		c-2.9-2.5-6-4.7-9.3-6.7c-3.3-2-6.7-3.7-10.3-5.1c-7.1-2.8-14.7-4.5-22.3-5.1c-7.7-0.6-15.4-0.2-23.1,1c-7.7,1.1-15.2,3-22.6,5.4
		c-7.3,2.2-14.1,5.8-20.3,10.4c-6.1,4.6-11.6,10.1-16,16.4c-4.4,6.3-7.9,13.1-10.2,20.5c-1.1,3.6-2,7.4-2.6,11.2
		c-0.6,3.8-0.9,7.6-0.9,11.5c-0.1,7.7,0.7,15.4,2.2,23.1c1.4,7.6,3.4,15.2,5.8,22.6l-1.9,0.6l0,0l0,0l46.4,19.3l23.2,9.6l11.6,4.7
		l5.8,2.3l2.9,1.2c0.9,0.5,2,0.7,3.6-0.7l0,0l1.6,0.6l-0.3,1.6c-0.2,1.2-0.4,2.4-0.6,3.6c-0.2,1.2-0.4,2.4-0.6,3.7
		c-0.2,1.2-0.4,2.4-0.5,3.7c-0.2,1.2-0.3,2.5-0.5,3.7l-0.4,3.7c-0.1,1.2-0.2,2.5-0.3,3.7c-0.1,1.2-0.2,2.5-0.3,3.7l-0.2,3.7l-4-0.1
		l0.2-3.8c0.1-1.3,0.2-2.5,0.3-3.8c0.1-1.3,0.2-2.5,0.3-3.8l0.4-3.8c0.1-1.3,0.3-2.5,0.5-3.7c0.2-1.2,0.3-2.5,0.5-3.7
		c0.2-1.2,0.4-2.5,0.6-3.7c0.2-1.2,0.4-2.5,0.7-3.7l1.3,2.3l0,0c-0.3-2.2-1.2-2.7-2.2-3l-2.9-1.2l-5.8-2.3l-11.6-4.7l-23.2-9.6
		L223,228.2l0,0l0,0l-1.9,0.6c-2.4-7.6-4.4-15.2-5.9-23.1c-1.4-7.8-2.3-15.8-2.2-23.9c0.1-4,0.4-8,1-12c0.6-4,1.5-7.9,2.7-11.8
		c2.4-7.6,6-15,10.7-21.6c4.7-6.6,10.4-12.4,16.9-17.2c6.4-4.8,13.7-8.7,21.5-11c7.6-2.4,15.3-4.3,23.2-5.5c7.9-1.2,16-1.6,24-1
		c8,0.6,16,2.3,23.5,5.3c3.8,1.5,7.4,3.3,10.9,5.4c3.5,2.1,6.7,4.5,9.8,7.1c6.1,5.2,11.4,11.5,15.8,18.2c4.4,6.7,7.9,14,10.7,21.5
		c2.7,7.5,4.7,15.3,5.8,23.3c0.5,4.1,0.6,8.1,0.6,12.1c0,4-0.2,7.9-0.4,11.9c-0.4,7.9-1,15.7-1.2,23.5c-0.1,3.9-0.1,7.8,0.2,11.6
		c0.1,1.9,0.3,3.8,0.5,5.7c0.3,1.9,0.6,3.6,1.1,5.6L386.2,253.7z"/>
</g>
<g>
	<g>
		<path fill="#1C4A85" d="M382.2,183.2c0,0,25.9-28.8,8-75c-4-10.2-14.4-31.2-25.5-33.8c0,0-21.6,8.5-22.3,50.4"/>
		<path fill="#123D6B" d="M382.2,183.2c2.4-4.6,4.4-9.2,6.3-13.8c0.9-2.3,1.8-4.6,2.6-7c0.7-2.4,1.3-4.8,1.8-7.2
			c0.5-2.4,0.8-4.9,1.1-7.4l0.2-1.9l0.1-1.9c0.1-1.2,0.1-2.5,0.1-3.7c0-2.5-0.2-5-0.4-7.4c-0.1-1.2-0.3-2.5-0.5-3.7
			c-0.2-1.2-0.4-2.4-0.6-3.7c-0.5-2.4-1.1-4.9-1.7-7.3c-0.3-1.2-0.7-2.4-1.1-3.6c-0.4-1.2-0.8-2.4-1.2-3.5c-0.8-2.4-1.8-4.7-2.8-6.9
			c-1-2.3-2.1-4.5-3.3-6.8c-1.2-2.2-2.4-4.4-3.7-6.5c-1.3-2.1-2.7-4.2-4.2-6.1c-1.5-1.9-3.1-3.8-4.9-5.3c-1.8-1.5-3.7-2.8-5.7-3.4
			l0,0l1.2-0.1c-0.3,0.2-0.9,0.5-1.3,0.8c-0.5,0.3-0.9,0.6-1.3,0.9c-0.9,0.7-1.7,1.4-2.6,2.1c-0.8,0.8-1.6,1.6-2.4,2.4
			c-0.8,0.8-1.5,1.7-2.1,2.6c-0.7,0.9-1.3,1.8-1.9,2.8c-0.6,1-1.2,2-1.7,3c-0.6,1-1.1,2-1.6,3.1c-0.5,1-0.9,2.1-1.4,3.2
			c-0.4,1.1-0.8,2.2-1.2,3.3c-0.4,1.1-0.7,2.2-1,3.3c-0.4,1.1-0.6,2.3-0.9,3.4l-0.8,3.4l-0.7,3.5l-0.7,3.5c-0.2,1.2-0.4,2.4-0.6,3.5
			c-0.2,1.2-0.4,2.4-0.6,3.6c-0.2-1.2-0.3-2.4-0.4-3.6c-0.1-1.2-0.1-2.4-0.2-3.6c0-1.2,0-2.4,0-3.7c0-1.2,0.1-2.4,0.2-3.7
			c0.1-1.2,0.2-2.4,0.5-3.7c0.2-1.2,0.4-2.4,0.7-3.6c0.3-1.2,0.6-2.4,0.9-3.6c0.3-1.2,0.7-2.4,1.1-3.6c0.4-1.2,0.8-2.3,1.3-3.5
			c0.5-1.2,1-2.3,1.6-3.4c0.6-1.1,1.2-2.2,1.8-3.3c0.7-1.1,1.4-2.1,2.1-3.1c0.8-1,1.6-2,2.4-2.9c0.8-1,1.8-1.8,2.7-2.7
			c1-0.8,2-1.6,3.1-2.3c0.5-0.4,1.1-0.7,1.7-1c0.6-0.3,1.1-0.6,1.9-0.9l0.7-0.3l0.5,0.2l0,0c2.9,0.7,5.4,2.2,7.6,4
			c2.1,1.8,3.9,3.7,5.6,5.8c3.3,4.1,6.1,8.6,8.6,13.2c1.2,2.3,2.4,4.6,3.4,7c1.1,2.4,2.1,4.8,2.9,7.3c0.5,1.2,0.9,2.5,1.3,3.7
			c0.4,1.3,0.8,2.5,1.1,3.8c0.3,1.3,0.7,2.5,1,3.8c0.3,1.3,0.6,2.6,0.8,3.9c0.2,1.3,0.4,2.6,0.6,3.9c0.1,1.3,0.3,2.6,0.4,3.9
			c0.2,2.6,0.3,5.2,0.3,7.9c0,1.3,0,2.6-0.1,3.9l-0.1,2l-0.2,2c-0.3,2.6-0.8,5.2-1.3,7.8c-0.6,2.6-1.3,5.1-2.1,7.6
			c-0.9,2.5-1.8,4.9-3,7.3c-1.2,2.4-2.5,4.6-4.1,6.7C386.1,179.7,384.3,181.7,382.2,183.2z"/>
	</g>
	<g>
		<path fill="#1C4A85" d="M379.3,105.9c0,0,2.9,30.5-11.1,46.7"/>
		<path fill="#123D6B" d="M379.3,105.9c0,0,0.2,0.7,0.5,2.1c0.3,1.3,0.6,3.3,0.9,5.6c0.1,1.2,0.2,2.4,0.2,3.8c0,1.3,0.1,2.8,0,4.2
			c0,1.5-0.2,3-0.3,4.5c-0.1,1.5-0.5,3.1-0.7,4.6c-0.3,1.5-0.7,3.1-1.1,4.6c-0.2,0.7-0.5,1.5-0.7,2.2c-0.3,0.7-0.4,1.4-0.8,2.1
			c-0.6,1.4-1.1,2.7-1.8,3.9c-0.7,1.2-1.3,2.3-2,3.3c-0.7,1-1.4,1.8-2,2.6c-0.6,0.8-1.3,1.3-1.7,1.8c-1,0.9-1.6,1.4-1.6,1.4
			s0.3-0.7,1-1.9c0.2-0.3,0.3-0.6,0.5-1c0.2-0.4,0.4-0.7,0.6-1.2c0.4-0.9,0.8-1.8,1.2-2.8c0.4-1,0.8-2.2,1.2-3.4
			c0.2-0.6,0.4-1.2,0.6-1.9c0.2-0.6,0.4-1.3,0.6-2c0.4-1.3,0.7-2.8,1.1-4.2c0.3-1.4,0.6-2.9,0.9-4.4c0.2-1.5,0.6-2.9,0.8-4.4
			c0.1-0.7,0.2-1.5,0.3-2.2c0.1-0.7,0.2-1.4,0.3-2.1c0.2-1.4,0.4-2.8,0.5-4.1c0.2-1.3,0.3-2.5,0.5-3.7c0.1-1.1,0.3-2.2,0.4-3.1
			c0.1-0.9,0.2-1.7,0.3-2.4C379.2,106.7,379.3,105.9,379.3,105.9z"/>
	</g>
</g>
<g>
	<path fill="#1C4A85" d="M316.8,266c0,0-81.6,26.9-110.2-24.8c0,0-2.4-4.4,4.9-6.8c11.6-3.8,11.4-6.4,10.8-7.8"/>
	<path fill="#123D6B" d="M316.8,266c0,0-0.5,0.4-1.4,1c-0.9,0.6-2.4,1.4-4.3,2.2c-1.9,0.8-4.2,1.6-7,2.2c-2.7,0.6-5.9,1.3-9.3,1.8
		c-3.4,0.6-7.1,1.1-11.1,1.5c-4,0.4-8.2,0.6-12.5,0.6c-4.4,0-8.9-0.2-13.4-0.7c-4.6-0.5-9.2-1.4-13.7-2.6c-2.3-0.6-4.5-1.4-6.7-2.2
		c-2.2-0.8-4.3-1.8-6.4-2.8c-4.2-2.1-8.1-4.5-11.5-7.4c-3.5-2.8-6.5-5.9-9-9.1c-0.6-0.8-1.2-1.6-1.8-2.4c-0.6-0.8-1.1-1.6-1.6-2.4
		c-0.5-0.8-1-1.6-1.5-2.4c-0.2-0.4-0.5-0.8-0.7-1.2c-0.2-0.5-0.3-0.7-0.4-1c-0.1-0.3-0.2-0.6-0.2-0.9c-0.2-1.3,0.2-2.6,0.8-3.7
		c0.6-1,1.5-1.8,2.3-2.3c0.8-0.5,1.6-0.9,2.4-1.3c0.4-0.2,0.8-0.3,1.2-0.4c0.3-0.1,0.7-0.2,1-0.3c2.5-0.9,4.7-1.8,6.3-2.7
		c0.8-0.4,1.4-0.9,1.8-1.2c0.4-0.4,0.5-0.6,0.5-0.7c0,0,0,0,0-0.1c0-0.1-0.1-0.2-0.1-0.2l3.7-1.5c0,0,0.1,0.2,0.2,0.6
		c0.1,0.4,0.3,1.3,0,2.3c-0.3,1-0.9,1.9-1.7,2.5c-0.7,0.7-1.6,1.3-2.6,1.8c-1.9,1.1-4.3,2-7,2.9c-0.3,0.1-0.7,0.2-1,0.3
		c-0.3,0.1-0.6,0.2-0.9,0.3c-0.6,0.2-1.2,0.5-1.6,0.9c-0.5,0.3-0.9,0.7-1.1,1.1c-0.2,0.4-0.3,0.7-0.2,1.2c0,0.1,0,0.2,0.1,0.3
		c0,0.1,0.1,0.3,0.1,0.2c0.2,0.4,0.4,0.7,0.7,1.1c0.4,0.7,0.9,1.5,1.4,2.2c0.5,0.8,1,1.5,1.5,2.2c0.5,0.8,1.1,1.5,1.7,2.2
		c2.4,3,5.2,5.8,8.4,8.4c3.2,2.6,6.9,4.8,10.8,6.7c2,0.9,4,1.8,6.1,2.5c2.1,0.7,4.2,1.4,6.3,2c4.3,1.1,8.7,1.9,13.1,2.4
		c4.4,0.5,8.7,0.7,12.9,0.7c8.4,0,16.3-0.8,23-1.7c3.4-0.5,6.4-1,9.1-1.6c2.7-0.6,5.1-0.9,7.1-1.1C314.4,265.9,316.8,266,316.8,266z
		"/>
</g>
<g>
	<path fill="#FFFFFF" d="M221.9,239.9c0,0,0.1,0.1,0.3,0.3c0.2,0.2,0.4,0.6,0.5,1.1c0.1,0.2,0.1,0.5,0.1,0.8c0,0.3-0.1,0.6-0.2,0.9
		c-0.1,0.3-0.3,0.7-0.6,1c-0.2,0.3-0.6,0.5-0.9,0.8c-0.3,0.1-0.7,0.3-1.1,0.3c-0.3,0.1-0.7,0.1-1,0c-0.3-0.1-0.6-0.1-0.8-0.2
		c-0.2-0.1-0.5-0.2-0.7-0.3c-0.2-0.1-0.4-0.3-0.5-0.4c-0.1-0.1-0.3-0.3-0.3-0.4c-0.2-0.2-0.3-0.4-0.3-0.4s0.2-0.1,0.4-0.2
		c0.3-0.1,0.6-0.2,1-0.4c0.2-0.1,0.4-0.1,0.6-0.2c0.2,0,0.4-0.2,0.5-0.2c0.2,0,0.3-0.1,0.4-0.2c0.2,0,0.2-0.1,0.3-0.2
		c0.1-0.1,0.2-0.1,0.3-0.2c0.1,0,0.2-0.1,0.3-0.2c0.1-0.1,0.2-0.2,0.4-0.3c0.1-0.1,0.2-0.3,0.4-0.4c0.2-0.3,0.5-0.6,0.6-0.8
		C221.8,240,221.9,239.9,221.9,239.9z"/>
</g>
<g>
	<path fill="#1C4A85" d="M346.7,362.5c0,0-8.4,40.6-11.7,53.3c-5.7,22-9.6,37.8-19,69c-4.3,14.3-10,30.3-16.5,51.9
		c-1.7,5.7-6.7,15.2,20.2,16.1c48.3,1.7,46.1-5,49.3-14.3c4-11.7,11.7-90.7,7.3-163.7"/>
	<path fill="#123D6B" d="M346.7,362.5c0,0,0.1,1.7-0.2,4.9c-0.2,3.2-0.8,7.8-2,13.7c-1.2,5.8-2.7,12.9-4.4,20.9
		c-0.9,4-1.8,8.3-2.9,12.9c-1.1,4.5-2.3,9.2-3.5,14.2c-1.2,4.9-2.6,10.1-4,15.4c-1.4,5.3-3,10.8-4.5,16.4c-0.8,2.8-1.6,5.7-2.4,8.5
		c-0.8,2.9-1.7,5.8-2.6,8.7c-0.9,2.9-1.7,5.9-2.7,8.9c-0.9,3-1.9,6-2.8,9c-3.9,12.1-8.1,24.6-12,37.3c-0.5,1.6-1,3.2-1.5,4.8
		c-0.5,1.6-1,3.1-1.1,4.4c-0.1,1.4,0.1,2.5,0.8,3.4c0.7,0.9,1.9,1.7,3.3,2.3c2.7,1.2,6,1.8,9.2,2.1c3.3,0.4,6.6,0.5,10,0.5
		c6.7,0.2,13.5,0.2,20.1-0.1c3.3-0.2,6.6-0.4,9.8-1c3.2-0.5,6.3-1.3,8.7-2.8c1.2-0.8,2.1-1.6,2.7-2.8c0.7-1.2,1.1-2.6,1.6-4.2
		l0.4-1.2l0.4-1.2l0.3-1.2l0.3-1.1c0.3-1.5,0.6-3.1,0.9-4.7c1.1-6.4,1.8-12.8,2.5-19.1c1.3-12.6,2.2-24.8,2.9-36.4
		c0.7-11.6,1.1-22.6,1.3-32.7c0.2-10.1,0.3-19.4,0.3-27.7c0-8.2-0.1-15.4,0-21.3c0-3,0-5.6,0.1-7.9c0.1-2.3,0.2-4.3,0.3-5.9
		c0.2-3.2,0.4-4.9,0.4-4.9s0.4,1.7,1,4.8c0.6,3.2,1.1,7.8,1.5,13.7c0.4,5.9,0.7,13.1,0.8,21.4c0.1,8.3,0,17.6-0.2,27.8
		c-0.2,10.2-0.6,21.2-1.3,32.9c-0.7,11.7-1.5,23.9-2.9,36.6c-0.7,6.3-1.4,12.8-2.5,19.3c-0.3,1.6-0.6,3.3-1,5l-0.3,1.3l-0.4,1.2
		l-0.7,2.4c-0.5,1.6-1,3.3-2,5c-1,1.7-2.5,3.3-4.1,4.3c-3.3,2-6.9,2.7-10.3,3.3c-3.4,0.5-6.9,0.8-10.3,1c-6.8,0.3-13.6,0.3-20.5,0.1
		c-3.4-0.1-6.9-0.2-10.3-0.6c-3.5-0.4-7-1-10.4-2.5c-1.7-0.8-3.5-1.8-4.8-3.6c-0.7-0.9-1.2-1.9-1.4-3c-0.3-1.1-0.3-2.2-0.2-3.2
		c0.2-2,0.8-3.7,1.3-5.3c0.5-1.6,1-3.2,1.5-4.8c3.9-12.8,8-25.3,11.9-37.3c0.9-3,1.9-6,2.8-9c0.9-2.9,1.8-5.9,2.6-8.9
		c1.7-5.9,3.5-11.6,5-17.2c1.6-5.6,3.1-11,4.5-16.3c1.4-5.3,2.8-10.4,4.1-15.3c1.3-4.9,2.6-9.6,3.7-14.1c1.1-4.5,2.1-8.7,3-12.8
		c1.8-8.1,3.3-15.1,4.6-20.9c1.3-5.8,2.6-10.3,3.7-13.3C346,364,346.7,362.5,346.7,362.5z"/>
</g>
<g>
	<path fill="#C2986B" d="M498.7,277.1c-0.4-0.4-0.9-0.9-1.4-1.3c-6.2-5.9-13.5-9.5-21.2-11.4c0.7,0.6,1.4,1,1.9,1.7"/>
	<path fill="#231F20" d="M497.4,278.6l-1.2-1.1l-0.1-0.1l0,0c-0.1-0.1,0.1,0.1,0.1,0.1l0,0l0,0l0,0l-0.1-0.1l-0.3-0.3l-0.6-0.5
		l-1.2-1.1l-1.2-0.9l-1.2-0.9l-1.3-0.9c-0.4-0.3-0.9-0.6-1.3-0.9l-1.4-0.8c-0.5-0.3-0.9-0.5-1.4-0.8l-1.4-0.7
		c-0.5-0.2-0.9-0.5-1.4-0.7l-1.5-0.6c-0.5-0.2-1-0.4-1.5-0.5c-0.5-0.2-1-0.3-1.5-0.5c-0.5-0.2-1-0.2-1.5-0.4c-0.5-0.1-1-0.3-1.5-0.5
		l1.8-3.5c0.1,0.1,0.2,0.3,0.3,0.4c0.1,0.2,0.3,0.4,0.4,0.6c0.1,0.1,0.1,0.3,0.2,0.4c0,0.1,0.1,0.3,0.1,0.5c0,0.1,0,0.2,0,0.3
		c0,0.1,0,0.2-0.1,0.3c-0.1,0.2-0.1,0.4-0.3,0.7l-0.7,0.2c-0.1,0-0.2,0.1-0.3,0.1c-0.1,0-0.2,0.1-0.2,0.1c-0.2,0-0.3,0.1-0.4,0.1
		c-0.1,0-0.2,0-0.3,0c-0.2-0.1-0.4-0.2-0.6-0.2c-0.2-0.1-0.4-0.2-0.7-0.4l-7.5-4.5l9.3,1.1c0.6,0.1,1.1,0.2,1.7,0.4
		c0.5,0.2,1.1,0.3,1.6,0.5c1.1,0.4,2.2,0.7,3.2,1.2l1.6,0.6c0.5,0.2,1,0.4,1.6,0.7l1.5,0.7c0.5,0.2,1,0.5,1.5,0.8l1.5,0.8
		c0.5,0.3,1,0.6,1.4,0.9l1.4,0.9l1.4,1.1c0.5,0.4,0.9,0.7,1.4,1.1l1.2,1.1l0.6,0.5l0.3,0.3l0.2,0.2l0.1,0.1l1.2,1.2L497.4,278.6z"/>
</g>
<path fill="#128469" d="M621.6,284.9C621.6,284.8,621.6,284.8,621.6,284.9c0-0.2,0-0.3,0-0.3c0-0.2,0-0.3,0-0.5c0-0.2,0-0.4,0-0.6
	c0,0,0-0.1,0-0.1c0-0.1,0-0.2,0-0.4c0-0.2,0-0.4,0-0.6c0-0.1,0-0.2,0-0.3c0-0.1,0-0.1,0-0.2c0-0.2,0-0.3,0-0.5c0-0.2,0-0.4-0.1-0.6
	c0-0.1,0-0.1,0-0.2c0-0.1,0-0.1,0-0.2c0-0.2,0-0.4-0.1-0.6c0-0.2,0-0.4-0.1-0.6c0,0,0,0,0,0c0-0.1,0-0.2,0-0.2
	c0-0.2-0.1-0.5-0.1-0.7c0-0.2-0.1-0.4-0.1-0.6c0,0,0-0.1,0-0.1c0-0.3-0.1-0.6-0.2-1c0-0.1,0-0.3-0.1-0.4c0,0,0-0.1,0-0.1
	c0,0,0,0,0,0c-0.1-0.4-0.1-0.8-0.2-1.2c0-0.1,0-0.2-0.1-0.3c0,0,0,0,0,0c0,0,0,0,0,0c-0.1-0.4-0.2-0.7-0.2-1.1c0-0.1,0-0.2-0.1-0.3
	c0-0.1,0-0.1,0-0.2c0-0.2-0.1-0.4-0.1-0.5c0-0.2-0.1-0.3-0.1-0.5c0-0.1-0.1-0.2-0.1-0.4c0-0.1-0.1-0.2-0.1-0.3c0-0.1,0-0.1-0.1-0.2
	c0-0.1-0.1-0.3-0.1-0.4c0-0.1,0-0.1-0.1-0.2c0-0.1-0.1-0.3-0.1-0.4c0-0.1-0.1-0.3-0.1-0.4c0-0.1-0.1-0.2-0.1-0.3
	c0-0.1-0.1-0.3-0.1-0.4c0,0,0,0,0,0c0-0.1-0.1-0.3-0.1-0.4c-0.1-0.2-0.1-0.4-0.2-0.6c-0.1-0.2-0.1-0.5-0.2-0.7
	c0-0.1-0.1-0.2-0.1-0.3c-0.1-0.2-0.2-0.5-0.3-0.7c-0.1-0.2-0.2-0.4-0.2-0.7c0-0.1-0.1-0.1-0.1-0.2c-0.1-0.3-0.2-0.6-0.4-1
	c-0.1-0.2-0.1-0.4-0.2-0.6c0,0,0-0.1,0-0.1c-0.1-0.4-0.3-0.7-0.4-1.1c-0.1-0.2-0.2-0.4-0.2-0.6c0,0,0,0,0,0c0,0,0,0,0,0
	c-0.1-0.3-0.3-0.7-0.5-1c-0.1-0.2-0.2-0.4-0.3-0.6c0-0.1-0.1-0.1-0.1-0.2c-0.1-0.2-0.2-0.4-0.3-0.6c0-0.1-0.1-0.2-0.1-0.3
	c-0.1-0.2-0.2-0.4-0.3-0.6c0-0.1-0.1-0.2-0.1-0.3c-0.1-0.2-0.2-0.5-0.3-0.7c0,0,0,0,0-0.1c-0.1-0.2-0.2-0.4-0.3-0.7
	c-0.1-0.1-0.2-0.3-0.2-0.4c-0.1-0.1-0.1-0.2-0.2-0.3c-0.1-0.1-0.2-0.3-0.2-0.4c-0.1-0.2-0.2-0.4-0.3-0.5c-0.1-0.2-0.2-0.4-0.3-0.6
	c-0.1-0.2-0.3-0.5-0.4-0.7c-0.1-0.1-0.1-0.3-0.2-0.4c-0.1-0.2-0.3-0.5-0.4-0.7c-0.1-0.2-0.2-0.3-0.3-0.5c0-0.1-0.1-0.1-0.1-0.2
	c-0.1-0.1-0.1-0.2-0.2-0.3c-0.2-0.3-0.4-0.7-0.6-1c-0.1-0.2-0.3-0.4-0.4-0.6c0,0-0.1-0.1-0.1-0.1c-0.4-0.6-0.8-1.2-1.1-1.8
	c-3.1-4.7-6.4-8.7-9.8-12c-1-1-1.9-1.9-2.9-2.7c-5.4-4.7-10.9-7.9-16.4-9.9c-1-0.4-2-0.7-3-1c-3-0.9-6-1.4-9-1.6
	c-1-0.1-2-0.1-2.9-0.1c-0.5,0-1,0-1.5,0c-0.5,0-1,0-1.4,0c-1.4,0.1-2.9,0.2-4.3,0.4c-1.4,0.2-2.8,0.4-4.1,0.7
	c-0.5,0.1-0.9,0.2-1.3,0.3c-0.9,0.2-1.8,0.4-2.6,0.7s-1.7,0.5-2.6,0.8c-0.8,0.3-1.7,0.6-2.5,0.9c-2.4,1-4.7,2.1-6.8,3.3
	c-0.7,0.4-1.4,0.8-2.1,1.2s-1.3,0.8-1.9,1.3c-1.6,1.1-3.2,2.3-4.5,3.5c-0.4,0.4-0.9,0.8-1.3,1.2c-0.5,0.5-0.9,0.9-1.3,1.3
	c-1,1-1.8,2.1-2.6,3.2c-0.5,0.8-1,1.5-1.5,2.3s-0.9,1.6-1.4,2.4c-0.4,0.8-0.9,1.6-1.3,2.4c-0.6,1.2-1.2,2.5-1.7,3.7
	c-0.4,0.8-0.7,1.6-1.1,2.5c-0.4,0.8-0.7,1.6-1,2.4c-0.3,0.8-0.7,1.6-1,2.4c-0.5,1.2-1.1,2.3-1.6,3.4c-0.4,0.7-0.8,1.4-1.2,2.1
	c-0.6,1-1.2,2-1.9,2.9c-1.4,1.8-2.9,3.3-4.8,4.4c-2.4,1.4-5.1,2.1-8.2,2.2c-1.8,0.1-3.7-0.1-5.7-0.5c0.7,0.7,1.3,1.4,2,2.1
	c0.4,0.5,0.8,0.9,1.3,1.4c0.2,0.2,0.4,0.5,0.7,0.7c0.6,0.7,1.1,1.3,1.7,2c0,0,0,0,0,0.1c0,0.1,0.1,0.1,0.1,0.2c0,0,0,0,0,0
	c0.7,0.9,1.5,1.9,2.2,2.9c0,0.1,0.1,0.1,0.1,0.2c1.4,1.9,2.7,4,3.9,6.1c0.1,0.1,0.2,0.3,0.2,0.4c0.6,1.1,1.2,2.2,1.8,3.3
	c0.1,0.2,0.2,0.4,0.3,0.6c0.4-0.4,0.8-0.7,1.3-1.1c0.1-0.1,0.1-0.1,0.2-0.2c0.4-0.3,0.9-0.6,1.3-0.9c0,0,0,0,0,0l0,0
	c0,0,0.1,0,0.1-0.1c0.9-0.6,1.8-1.1,2.8-1.5c0.1,0,0.2-0.1,0.2-0.1c0.4-0.2,0.9-0.4,1.3-0.5c0.1,0,0.1,0,0.2-0.1
	c0.3-0.1,0.5-0.2,0.8-0.2c0.6-0.2,1.2-0.4,1.8-0.5c0.1,0,0.3-0.1,0.4-0.1c0.7-0.2,1.4-0.3,2-0.4c1-0.2,2.1-0.3,3.1-0.3
	c0.4,0,0.9,0,1.3,0c0.9,0,1.7,0,2.5,0.1c4.2,0.2,8,1.2,10.7,2.7c0.8,0.4,1.5,0.9,2.1,1.4c0.2,0.2,0.4,0.3,0.5,0.5
	c0.3,0.3,0.6,0.7,0.8,1.1c0,0,0,0,0,0c0.2,0.3,0.3,0.6,0.5,0.9c0,0.1,0.1,0.2,0.1,0.3c0.1,0.2,0.2,0.4,0.3,0.6
	c0.1,0.1,0.1,0.2,0.2,0.3c0.1,0.2,0.2,0.4,0.3,0.6c0,0.1,0.1,0.2,0.1,0.3c0.3,0.6,0.5,1.2,0.7,1.8c0,0.1,0.1,0.2,0.1,0.2
	c0.1,0.2,0.2,0.5,0.2,0.7c0,0.1,0.1,0.2,0.1,0.3c0.1,0.2,0.1,0.5,0.2,0.7c0,0.1,0,0.2,0.1,0.2c0.2,0.6,0.3,1.3,0.4,1.9
	c0,0.1,0,0.1,0,0.2c0,0.3,0.1,0.5,0.1,0.8c0,0.1,0,0.2,0,0.3c0,0.3,0,0.5,0,0.8c0,0.1,0,0.2,0,0.3c0,0.7,0,1.4-0.1,2.2
	c0,0.1,0,0.1,0,0.2c0,0.3-0.1,0.6-0.1,0.9c0,0.1,0,0.2,0,0.3c0,0.3-0.1,0.6-0.1,0.9c0,0.1,0,0.2,0,0.3c-0.1,0.4-0.1,0.8-0.2,1.3
	c-0.2,1.1-0.5,2.3-0.9,3.6c-0.1,0.4-0.2,0.8-0.4,1.3c-0.8,2.6-1.9,5.5-3.3,8.8c-0.5,1.1-1,2.2-1.5,3.4c-0.3,0.6-0.5,1.2-0.7,1.8
	c0,0,0,0,0,0.1c0,0.1-0.1,0.3-0.1,0.4c0,0,0,0,0,0l0,0c0,0,0,0,0,0c-0.1,0.2-0.1,0.4-0.2,0.6c-0.1,0.3-0.2,0.5-0.3,0.8
	c0,0,0,0.1,0,0.1c0,0,0,0,0,0.1v0c0,0.1-0.1,0.2-0.1,0.3c0,0.1-0.1,0.2-0.1,0.3c-0.1,0.2-0.1,0.3-0.2,0.5c0,0.1-0.1,0.2-0.1,0.3
	c0,0.1-0.1,0.2-0.1,0.3l0,0l0,0c0,0.1-0.1,0.2-0.1,0.3c0,0.1,0,0.1-0.1,0.2c0,0.1-0.1,0.3-0.1,0.4c-0.1,0.4-0.2,0.7-0.3,1.1l0,0l0,0
	c0,0.1-0.1,0.2-0.1,0.4c0,0.1-0.1,0.3-0.1,0.4c0,0,0,0,0,0l0,0c0,0,0,0,0,0c0,0,0,0.1,0,0.1c-0.1,0.4-0.2,0.7-0.3,1.1l0,0l0,0
	c0,0.1,0,0.2-0.1,0.3c0,0.1,0,0.1,0,0.2l0,0c0,0,0,0,0,0c0,0,0,0,0,0c0,0.1-0.1,0.3-0.1,0.4l0,0c0,0,0,0,0,0c0,0.2-0.1,0.3-0.1,0.5
	c0,0.2-0.1,0.4-0.1,0.6c-0.1,0.3-0.1,0.7-0.2,1c-0.1,0.3-0.1,0.6-0.2,1c0,0.1,0,0.2-0.1,0.3c0,0.1,0,0.1,0,0.2
	c0,0.2-0.1,0.4-0.1,0.7c-0.1,0.3-0.1,0.7-0.1,1.1c0,0.3-0.1,0.6-0.1,0.8c0,0.1,0,0.3,0,0.4c0,0.3-0.1,0.6-0.1,0.9
	c0,0.4-0.1,0.8-0.1,1.2c0,0.2,0,0.4-0.1,0.6c0,0.2,0,0.3,0,0.5c0,0.2,0,0.4,0,0.6c0,0.2,0,0.4,0,0.5v0c0,0.3,0,0.6,0,1c0,0,0,0,0,0
	c0,0.1,0,0.2,0,0.4c0,0.1,0,0.2,0,0.3c0,0,0,0,0,0c0,0.2,0,0.4,0,0.6c0,0.3,0,0.6,0,0.9c0,0.3,0,0.6,0,0.9c0,0.2,0,0.3,0,0.5
	c0,0.1,0,0.2,0,0.3c0,0.1,0,0.3,0,0.4c0,0,0,0.1,0,0.1c0,0.5,0,1,0,1.5c0,0.2,0,0.4,0,0.7c0,0.1,0,0.1,0,0.2c0,0.2,0,0.4,0,0.6
	c0,0,0,0,0,0v0c0,0.3,0,0.6,0,0.8c0,0,0,0,0,0c0,0.1,0,0.3,0,0.4c0,0,0,0,0,0c0,0.6,0.1,1.1,0.1,1.7c0,0,0,0,0,0c0,0,0,0,0,0
	c0,0,0,0.1,0,0.1c0,0,0,0,0,0c0,0,0,0,0,0c0,0,0,0,0,0c0,0,0,0,0,0c0.1,0.7,0.1,1.3,0.2,2c0,0.2,0.1,0.5,0.1,0.7l0,0l0,0
	c0,0.2,0.1,0.4,0.1,0.7c0,0.1,0,0.1,0,0.2c0-0.1,0-0.1,0-0.2c0,0.3,0.1,0.5,0.1,0.8c0-0.1,0-0.3-0.1-0.4c0.1,0.5,0.2,1.1,0.2,1.6
	c-0.1-0.4-0.1-0.8-0.2-1.2c0.1,0.5,0.1,0.9,0.2,1.4c0,0.1,0,0.2,0,0.3c0,0,0,0,0,0c0,0.1,0,0.3,0.1,0.4l0,0c0,0,0,0,0,0
	c0,0.1,0,0.2,0,0.3c0.2,0.9,0.3,1.8,0.5,2.7c0,0,0,0,0,0c0,0,0,0,0,0c0,0.1,0.1,0.3,0.1,0.4c0.1,0.5,0.2,1.1,0.3,1.6
	c0.1,0.3,0.2,0.6,0.2,0.9c0.1,0.2,0.1,0.4,0.2,0.6c0,0,0,0,0,0c0,0,0,0,0,0.1c0.2,0.8,0.4,1.6,0.7,2.5c0,0,0,0,0,0
	c0,0.1,0,0.2,0.1,0.3c0,0,0,0,0,0c0.2,0.6,0.3,1.1,0.5,1.7c0,0,0,0.1,0,0.1l0,0c0.2,0.7,0.4,1.3,0.7,2l0,0c-0.2-0.7-0.5-1.3-0.7-2
	l0,0c0.1,0.2,0.1,0.4,0.2,0.6c0.1,0.4,0.3,0.9,0.5,1.3c0,0,0,0,0,0c0,0,0,0.1,0.1,0.1c0.2,0.5,0.3,0.9,0.5,1.4
	c0.1,0.2,0.1,0.4,0.2,0.5l0,0c0,0.1,0,0.1,0.1,0.2c0,0,0,0,0,0c0.1,0.3,0.2,0.5,0.3,0.8c0.1,0.4,0.3,0.7,0.4,1c0,0,0,0,0,0
	c0,0.1,0.1,0.1,0.1,0.2c0.1,0.2,0.1,0.3,0.2,0.5c0.2,0.4,0.4,0.9,0.6,1.3c0,0,0,0,0,0c0,0.1,0.1,0.1,0.1,0.2
	c0.3,0.6,0.6,1.2,0.9,1.8c0,0.1,0.1,0.1,0.1,0.2c0,0,0,0,0,0c0.3,0.6,0.6,1.2,0.9,1.7c0,0,0,0,0,0c0,0,0,0.1,0.1,0.1c0,0,0,0,0,0
	c0.3,0.6,0.7,1.1,1,1.7l0,0c0,0,0,0.1,0,0.1c0.3,0.4,0.5,0.8,0.8,1.2c0.1,0.2,0.2,0.3,0.3,0.5l0,0l0,0c0.7,1.1,1.4,2.1,2.2,3
	c0,0,0,0,0,0c0.4,0.5,0.9,1,1.3,1.5c0.1,0.1,0.1,0.1,0.2,0.2c0.1,0.1,0.3,0.3,0.4,0.4c0.3,0.3,0.5,0.5,0.8,0.8
	c0.1,0.1,0.3,0.3,0.4,0.4c0.2,0.1,0.3,0.3,0.5,0.4c0.2,0.2,0.4,0.4,0.6,0.5c0.2,0.2,0.5,0.4,0.7,0.6c0.1,0.1,0.3,0.2,0.4,0.3l0,0v0
	c0.2,0.1,0.3,0.2,0.5,0.3c0.3,0.2,0.7,0.5,1.1,0.7c0.3,0.2,0.7,0.4,1,0.6c0.3,0.2,0.7,0.4,1,0.6c0.4,0.2,0.7,0.4,1.1,0.6
	c0.3,0.2,0.7,0.3,1,0.5c0.4,0.2,0.8,0.4,1.3,0.6c0.3,0.1,0.6,0.2,0.9,0.4c0.5,0.2,1,0.4,1.5,0.6c0.2,0.1,0.4,0.1,0.5,0.2
	c3.1,1.1,6.4,1.9,9.9,2.4c1.4,0.2,2.8,0.3,4.2,0.4c0,0,0.1,0,0.1,0c0.8,0,1.7,0.1,2.5,0.1c0,0,0.1,0,0.1,0c0.8,0,1.7,0,2.5,0h0h0
	c16.8-0.5,34.1-8.6,40.8-24.9c-13.2,8.8-23,7.8-29.5,3.4c-1.8-1.2-3.3-2.6-4.6-4.2c-0.1-0.1-0.2-0.2-0.2-0.3c-0.3-0.3-0.5-0.7-0.7-1
	c-0.3-0.4-0.6-0.8-0.9-1.3c-0.1-0.2-0.2-0.3-0.3-0.5c-0.3-0.4-0.5-0.9-0.8-1.4c-0.1-0.2-0.2-0.4-0.3-0.6c-0.2-0.4-0.3-0.7-0.5-1.1
	c0-0.1-0.1-0.2-0.1-0.2c-0.1-0.2-0.1-0.3-0.2-0.5c0-0.1,0-0.1-0.1-0.2c-0.2-0.6-0.4-1.2-0.6-1.8c-0.5-1.7-0.7-3.4-0.8-5.2
	c-0.2-5.4,1.7-10.7,4.5-15.7c0.1-0.1,0.1-0.2,0.2-0.4c0.2-0.3,0.4-0.6,0.5-0.9c0.1-0.2,0.2-0.4,0.3-0.6c0.2-0.3,0.4-0.6,0.5-0.9
	c0.1-0.2,0.2-0.4,0.4-0.6c0.3-0.5,0.7-1,1-1.5c0.1-0.2,0.3-0.4,0.4-0.6c0.2-0.3,0.4-0.5,0.6-0.8c0.1-0.2,0.3-0.4,0.4-0.6
	c0.2-0.3,0.4-0.5,0.6-0.8c0.2-0.2,0.3-0.4,0.5-0.6c0.2-0.2,0.4-0.5,0.5-0.7c0.2-0.3,0.4-0.5,0.6-0.8c0.3-0.4,0.6-0.8,1-1.2
	c0.1-0.1,0.2-0.3,0.4-0.4c0.4-0.5,0.8-0.9,1.1-1.4c0,0,0,0,0,0c0.1-0.1,0.2-0.2,0.3-0.3c0.4-0.5,0.8-0.9,1.1-1.3
	c0.1-0.1,0.2-0.3,0.4-0.4c0.3-0.4,0.7-0.8,1-1.1c0.1-0.1,0.2-0.2,0.3-0.4c0.4-0.5,0.8-0.9,1.2-1.4c0.2-0.2,0.3-0.4,0.5-0.6
	c0,0,0.1-0.1,0.1-0.1c0.1-0.2,0.3-0.3,0.4-0.5c0.1-0.1,0.2-0.2,0.3-0.3c0.1-0.1,0.2-0.2,0.2-0.3c0.1-0.1,0.1-0.1,0.2-0.2
	c0.1-0.1,0.1-0.2,0.2-0.2c0,0,0.1-0.1,0.1-0.1c0.1-0.1,0.2-0.2,0.3-0.3c0.1-0.1,0.1-0.2,0.2-0.2c0.1-0.1,0.1-0.1,0.2-0.2
	c0,0,0.1-0.1,0.1-0.1c0,0,0-0.1,0.1-0.1c0.3-0.3,0.5-0.6,0.7-0.9c1-1.2,2.3-2.7,3.8-4.6l0,0c0,0,0,0,0,0c0.2-0.2,0.3-0.4,0.5-0.6
	c0,0,0,0,0,0c0.1-0.1,0.1-0.1,0.2-0.2c0.1-0.1,0.2-0.3,0.3-0.4c0.1-0.1,0.1-0.2,0.2-0.3c0.1-0.1,0.2-0.3,0.3-0.4
	c0,0,0.1-0.1,0.1-0.1c0-0.1,0.1-0.1,0.1-0.2c0.1-0.1,0.2-0.3,0.3-0.4c0.1-0.1,0.2-0.2,0.2-0.3c0.1-0.2,0.2-0.3,0.3-0.5
	c0.1-0.1,0.2-0.2,0.2-0.3c0.1-0.2,0.2-0.3,0.4-0.5c0.1-0.1,0.1-0.2,0.2-0.3c0.2-0.3,0.4-0.5,0.5-0.8c0,0,0,0,0,0c0,0,0,0,0,0
	c0.2-0.3,0.4-0.6,0.6-0.9c0,0,0,0,0,0c0-0.1,0.1-0.2,0.1-0.2c0.1-0.2,0.3-0.4,0.4-0.6c0.1-0.1,0.2-0.2,0.2-0.4
	c0.1-0.2,0.2-0.4,0.4-0.6c0-0.1,0.1-0.1,0.1-0.2c0-0.1,0.1-0.1,0.1-0.2c0.1-0.2,0.2-0.4,0.3-0.6c0.1-0.1,0.2-0.3,0.2-0.4
	c0.1-0.2,0.2-0.4,0.3-0.6c0.1-0.1,0.1-0.2,0.2-0.3c0,0,0-0.1,0.1-0.1c0.1-0.2,0.2-0.4,0.4-0.6c0.1-0.1,0.1-0.2,0.2-0.3
	c0.2-0.3,0.4-0.6,0.5-1c0,0,0,0,0,0c0.2-0.3,0.4-0.7,0.5-1c0.1-0.1,0.1-0.2,0.2-0.3c0.1-0.2,0.2-0.5,0.4-0.7c0,0,0-0.1,0.1-0.1
	c0-0.1,0.1-0.2,0.1-0.3c0.1-0.2,0.2-0.4,0.3-0.7c0-0.1,0.1-0.1,0.1-0.2c0-0.1,0.1-0.2,0.1-0.3c0.1-0.2,0.2-0.4,0.3-0.7
	c0.1-0.2,0.1-0.3,0.2-0.5c0.1-0.2,0.2-0.5,0.3-0.7c0.1-0.1,0.1-0.3,0.2-0.4c0.1-0.3,0.2-0.5,0.3-0.8c0.1-0.1,0.1-0.3,0.2-0.4
	c0.1-0.4,0.3-0.7,0.4-1.1c0,0,0,0,0-0.1c0.1-0.4,0.3-0.8,0.4-1.2c0-0.1,0.1-0.3,0.1-0.4c0.1-0.3,0.2-0.6,0.3-0.8
	c0.1-0.2,0.1-0.3,0.2-0.5c0.1-0.3,0.2-0.5,0.2-0.8c0-0.1,0-0.1,0.1-0.2c0-0.1,0.1-0.2,0.1-0.3c0.1-0.3,0.2-0.5,0.2-0.8
	c0-0.2,0.1-0.3,0.1-0.5c0.1-0.3,0.1-0.5,0.2-0.8c0-0.1,0.1-0.2,0.1-0.3c0-0.1,0-0.1,0-0.2c0.1-0.3,0.1-0.6,0.2-0.9
	c0-0.1,0.1-0.3,0.1-0.4c0.1-0.4,0.2-0.8,0.2-1.2l0,0c0,0,0,0,0,0c0,0,0-0.1,0-0.1c0,0,0,0,0-0.1c0.1-0.4,0.2-0.9,0.3-1.4
	c0,0,0-0.1,0-0.1c0-0.1,0-0.2,0-0.2c0,0,0-0.1,0-0.1c0.1-0.3,0.1-0.6,0.1-0.9c0-0.1,0-0.1,0-0.2c0-0.1,0-0.2,0-0.4
	c0-0.1,0-0.1,0-0.2c0-0.1,0-0.2,0-0.3c0-0.1,0-0.2,0-0.3c0-0.2,0-0.4,0.1-0.6c0-0.3,0.1-0.5,0.1-0.8c0-0.1,0-0.1,0-0.2
	c0-0.1,0-0.2,0-0.2c0-0.1,0-0.2,0-0.3c0-0.3,0-0.6,0.1-0.9c0-0.1,0-0.3,0-0.4c0-0.1,0-0.1,0-0.2c0,0,0,0,0,0c0,0,0,0,0,0
	c0-0.3,0-0.6,0-0.9c0-0.1,0-0.3,0-0.4c0,0,0,0,0,0c0,0,0,0,0,0c0-0.4,0-0.8,0-1.3c0,0,0,0,0-0.1c0,0,0-0.1,0-0.1c0,0,0,0,0,0v0
	C621.6,285.6,621.6,285.2,621.6,284.9z M494.8,275.5c0.2,0.2,0.4,0.5,0.6,0.7c0,0,0,0,0,0C495.2,276,495,275.8,494.8,275.5z"/>
<g>
	<path fill="#1C4A85" d="M430.6,274c16-13.3,47.2-16.8,66.8,1.8c16.5,15.7,28.3,40.9,22.7,77.8c-2.2,14.8-8,23.3-7.7,42.3"/>
	<path fill="#123D6B" d="M429.3,272.4c0,0,0.2-0.1,0.5-0.4c0.3-0.2,0.7-0.6,1.3-1c1.3-0.9,3.1-2.2,5.7-3.6c2.5-1.3,5.7-2.8,9.5-3.9
		c3.8-1.2,8.2-2.1,13-2.4c4.8-0.4,10.2-0.1,15.6,1c5.5,1.1,11.1,3.2,16.3,6.4c2.6,1.6,5.1,3.5,7.4,5.7c0.6,0.6,1.1,1.1,1.7,1.6
		l1.6,1.7c1.1,1.1,2.1,2.3,3.1,3.5c4,4.9,7.6,10.3,10.3,16.1c2.8,5.8,4.8,11.9,6.1,18.1c1.3,6.2,1.9,12.4,2.1,18.3
		c0.1,6-0.3,11.7-1,17.2c-0.2,1.4-0.4,2.7-0.6,4c-0.1,0.6-0.2,1.3-0.3,1.9c-0.1,0.7-0.3,1.3-0.4,1.9c-0.5,2.6-1.1,5-1.8,7.2
		c-1.2,4.6-2.4,8.6-3.3,12.3c-0.9,3.6-1.4,6.8-1.8,9.5c-0.1,0.7-0.2,1.3-0.3,1.9c-0.1,0.6-0.2,1.1-0.3,1.7c-0.2,1-0.5,1.9-0.6,2.7
		c-0.4,1.5-0.8,2.2-0.8,2.2s-0.4-0.8-0.8-2.3c-0.1-0.4-0.2-0.8-0.3-1.2c-0.1-0.5-0.2-1-0.2-1.5c-0.1-0.5-0.1-1.1-0.2-1.8
		c0-0.6,0-1.3,0-2c0.1-2.8,0.4-6.2,1.2-10c0.8-3.8,2-8,3.3-12.5c0.7-2.2,1.3-4.6,1.8-7c0.1-0.6,0.3-1.2,0.4-1.8
		c0.1-0.6,0.2-1.3,0.3-1.9c0.2-1.2,0.4-2.6,0.6-3.9c0.7-5.3,1-10.8,0.9-16.6c-0.1-5.8-0.7-11.7-2-17.6c-1.3-5.9-3.2-11.7-5.8-17.2
		c-2.6-5.5-5.9-10.7-9.8-15.3c-1-1.1-2-2.3-3-3.4l-1.5-1.6c-0.5-0.5-1.1-1.1-1.6-1.5c-2.1-2-4.4-3.7-6.8-5.2c-4.8-3-9.9-4.9-15-5.9
		c-5.1-1-10-1.3-14.5-0.9c-4.5,0.3-8.6,1.2-12.1,2.3c-3.5,1.1-6.4,2.4-8.8,3.6c-2.3,1.2-4,2.4-5.1,3.2c-0.6,0.4-1,0.8-1.3,1
		c-0.3,0.2-0.5,0.4-0.5,0.4L429.3,272.4z"/>
</g>
<g>
	<g>
		<g>
			<circle fill="#DD273F" cx="311.1" cy="213" r="6"/>
			<circle fill="#CBCBCB" cx="347.2" cy="213" r="6"/>
			<circle fill="#128469" cx="338.1" cy="198" r="6"/>
			<circle fill="#CBCBCB" cx="320.1" cy="198" r="6"/>
			<circle fill="#1E8BCB" cx="338.1" cy="228.1" r="6"/>
			<circle fill="#CBCBCB" cx="320.1" cy="228.1" r="6"/>
		</g>
	</g>
</g>
<path fill="#FFFFFF" d="M240.9,198.7c3.5-0.7,6.6,2.4,5.9,5.9c-0.4,2-2,3.6-3.9,3.9c-3.5,0.7-6.6-2.4-5.9-5.9
	C237.4,200.7,239,199.1,240.9,198.7z"/>
<g>
	
		<rect x="482.6" y="331.5" transform="matrix(-0.866 0.5 -0.5 -0.866 1085.551 375.6015)" fill="#FFFFFF" width="19.8" height="3.4"/>
	<path fill="#FFFFFF" d="M477.9,308.3c0,1.8-0.9,3.3-2.2,4.2l7.7,13.4l1.8-1l2.5,4.4l4.5-2.6l-2.5-4.4l1.8-1L471,286l-1.4,0.8
		l-2-3.5l-5.3,3.1l2,3.5l-1.3,0.8l7.6,13.1c0.7-0.3,1.4-0.5,2.2-0.5C475.6,303.2,477.9,305.5,477.9,308.3z"/>
	<path fill="#FFFFFF" d="M466.2,326.5c0-5.2,2.2-10,5.8-13.4c-2.4-0.4-4.2-2.4-4.2-4.9c0-0.3,0-0.5,0.1-0.7
		c-5.4,4.7-8.7,11.5-8.7,19c0,7.3,3.1,13.8,8.1,18.4c-3.4,0-9.7,0-9.7,0v7.2H500V345c0,0-8.4,0-15.2,0
		C474.5,345,466.2,336.8,466.2,326.5z"/>
	<path fill="#FFFFFF" d="M475.8,308.3c0-1.7-1.3-3-3-3c-1.7,0-3,1.3-3,3c0,1.7,1.3,3,3,3C474.5,311.3,475.8,309.9,475.8,308.3z"/>
	<path fill="#FFFFFF" d="M469.8,308.3c0-1.7,1.3-3,3-3c1.7,0,3,1.3,3,3c0,1.7-1.3,3-3,3C471.1,311.3,469.8,309.9,469.8,308.3z"/>
</g>
</svg>
